# Blender 4.2.3 LTS
# www.blender.org
mtllib part_1_simplified.mtl
o part_1_simplified
v -0.058436 -0.031215 -0.027000
v -0.034320 0.019970 -0.033500
v -0.037451 0.022893 -0.027001
v -0.034483 -0.004041 -0.033500
v -0.027894 -0.004516 -0.033500
v -0.037095 -0.005868 -0.037000
v -0.026185 -0.007851 -0.030000
v -0.037259 -0.005307 -0.030000
v -0.050445 -0.005683 -0.029977
v -0.055757 -0.027725 -0.030217
v -0.022343 -0.031917 -0.030076
v -0.005907 -0.026566 -0.030119
v -0.011657 -0.005507 -0.029972
v -0.025923 -0.007312 -0.037000
v -0.019811 0.027928 -0.030000
v 0.007891 0.028000 -0.029977
v -0.011318 0.061760 -0.030020
v -0.025923 0.063312 -0.030000
v 0.025210 0.050295 -0.030114
v 0.028801 0.033551 -0.030121
v 0.005095 0.077410 -0.030098
v 0.004263 0.078495 -0.040093
v 0.014566 0.068354 -0.038148
v 0.025851 0.047770 -0.037740
v 0.030292 0.033362 -0.039805
v 0.030460 0.022794 -0.040257
v 0.028801 0.022449 -0.030121
v 0.022968 0.000000 -0.037726
v 0.025210 0.005705 -0.030114
v 0.005095 -0.021410 -0.030098
v 0.004230 -0.022484 -0.040085
v 0.016449 -0.012082 -0.040240
v -0.004991 -0.027665 -0.039777
v -0.026201 -0.032425 -0.037598
v -0.056887 -0.027685 -0.039578
v -0.040317 -0.033465 -0.040500
v -0.050444 0.061680 -0.029975
v -0.067095 0.077410 -0.030098
v -0.087210 0.050295 -0.030114
v -0.090801 0.033551 -0.030121
v -0.088293 0.048154 -0.038279
v -0.077908 0.067080 -0.038371
v -0.066217 0.078369 -0.039823
v -0.057009 0.083665 -0.039777
v -0.056093 0.082566 -0.030119
v -0.035799 0.088425 -0.037598
v -0.039657 0.087917 -0.030076
v -0.006246 0.083714 -0.030241
v -0.005113 0.083685 -0.039578
v -0.011378 0.064369 -0.030000
v -0.017233 0.088359 -0.040503
v -0.037095 0.061868 -0.030000
v -0.025465 0.062876 -0.037000
v -0.019811 0.028072 -0.037000
v -0.036741 0.062323 -0.037000
v -0.079840 0.066707 -0.041028
v -0.092598 0.033377 -0.040357
v -0.069876 0.028000 -0.029966
v -0.087210 0.005705 -0.030114
v -0.090801 0.022449 -0.030121
v -0.067095 -0.021410 -0.030098
v -0.066217 -0.022369 -0.039823
v -0.084968 0.000000 -0.037726
v -0.092292 0.022638 -0.039805
v -0.087532 0.002030 -0.040436
v -0.074736 -0.015873 -0.040441
v -0.018449 -0.032623 -0.040503
v 0.026984 0.006184 -0.040438
v 0.024888 0.055675 -0.040576
v -0.039377 0.089601 -0.040500
v -0.022888 0.092756 -0.041000
v 0.014001 0.075907 -0.041000
v 0.031690 0.044790 -0.041000
v 0.032553 0.013164 -0.041000
v 0.017975 -0.014584 -0.041000
v -0.005786 -0.032152 -0.040181
v -0.025471 -0.037028 -0.041000
v -0.060771 -0.030076 -0.041000
v -0.084167 -0.009218 -0.041000
v -0.094593 0.015184 -0.041004
v 0.031086 0.011133 -0.037467
v 0.019616 -0.011165 -0.037199
v 0.007342 -0.023528 -0.037451
v -0.025928 -0.036040 -0.037028
v -0.049612 -0.033145 -0.037248
v -0.065745 -0.025646 -0.037248
v -0.082428 -0.010434 -0.037300
v -0.094626 0.016561 -0.037469
v 0.033159 0.030972 -0.037451
v -0.003608 0.086214 -0.037467
v 0.019773 0.067520 -0.037228
v 0.029854 0.048542 -0.037451
v -0.058436 0.087215 -0.041000
v -0.082826 0.067064 -0.041000
v -0.095356 0.040117 -0.039881
v -0.090111 0.051788 -0.036715
v -0.074464 0.075675 -0.037229
v -0.051882 0.088407 -0.037248
v -0.026396 0.092175 -0.037228
v -0.090700 0.006670 -0.036475
v -0.090111 0.004212 -0.031285
v -0.094913 0.014338 -0.028299
v -0.095795 0.035795 -0.027000
v -0.094368 0.038960 -0.030843
v -0.084167 0.065218 -0.027000
v -0.082516 0.066540 -0.030533
v -0.060770 0.086076 -0.027000
v -0.068158 0.080388 -0.030549
v -0.048839 0.090225 -0.030371
v -0.033930 0.092603 -0.026999
v -0.038000 0.091008 -0.031525
v -0.022124 0.091442 -0.030904
v -0.002080 0.085320 -0.030700
v 0.015797 0.071532 -0.030752
v 0.026307 0.055853 -0.031285
v 0.032315 0.044726 -0.027769
v 0.033159 0.025028 -0.030549
v 0.029854 0.007458 -0.030549
v 0.019955 -0.011448 -0.030560
v 0.002413 -0.026852 -0.030549
v -0.014001 -0.033937 -0.030549
v -0.031300 -0.035999 -0.030801
v -0.051882 -0.032407 -0.030752
v -0.067724 -0.024311 -0.030752
v -0.080720 -0.012162 -0.030752
v -0.038439 0.024982 -0.037000
v -0.038695 0.031516 -0.027000
v -0.042189 0.028072 -0.030000
v -0.034462 -0.003938 -0.037000
v -0.082826 -0.011064 -0.027000
v -0.025228 0.022306 -0.033501
v -0.027878 -0.004634 -0.037000
v -0.022576 0.027961 -0.037000
v -0.027847 0.019844 -0.027000
v -0.022888 -0.036756 -0.027000
v 0.006231 -0.025158 -0.027000
v -0.022709 0.029551 -0.026999
v 0.029596 0.002538 -0.027000
v -0.027680 0.036030 -0.033500
v -0.027242 0.059437 -0.033500
v -0.033823 0.061016 -0.033500
v -0.028342 0.061070 -0.037000
v -0.042189 0.027928 -0.037000
v -0.034669 0.059525 -0.037000
v -0.037085 0.033409 -0.036046
v -0.029751 0.036438 -0.026999
v 0.017975 0.070584 -0.027000
v -0.007761 0.088984 -0.027000
vn 0.2912 0.9171 -0.2722
vn -0.0000 -0.0000 -1.0000
vn 0.1051 0.9940 0.0297
vn -0.2233 -0.9720 0.0727
vn -0.0015 -0.0066 -1.0000
vn -0.0000 0.0108 -0.9999
vn 0.0047 0.0039 -1.0000
vn -0.0045 0.0058 -1.0000
vn 0.0014 0.0034 -1.0000
vn -0.1278 -0.9885 -0.0809
vn 0.0020 -0.0004 -1.0000
vn 0.0008 -0.0006 -1.0000
vn -0.0066 -0.0010 -1.0000
vn -0.0036 -0.0034 -1.0000
vn -0.0031 -0.0017 -1.0000
vn -0.6995 -0.7144 -0.0193
vn -0.7745 -0.5744 -0.2650
vn -0.8744 -0.4777 0.0847
vn -0.9675 -0.2074 -0.1449
vn -0.9547 -0.2969 0.0180
vn -0.2565 0.9648 -0.0583
vn -0.9478 0.3162 0.0422
vn -0.0046 0.0026 -1.0000
vn -0.0066 0.0010 -1.0000
vn -0.0047 0.0029 -1.0000
vn -0.7681 0.6403 -0.0024
vn 0.6815 0.7190 -0.1363
vn -0.2145 0.9757 0.0440
vn 0.1239 0.9837 -0.1301
vn 0.1535 0.9880 -0.0143
vn -0.0005 -0.0000 -1.0000
vn -0.0018 -0.0000 -1.0000
vn 0.0047 -0.0029 -1.0000
vn 0.0047 -0.0030 -1.0000
vn 0.0071 -0.0011 -1.0000
vn 0.9607 -0.2720 -0.0562
vn 0.8767 -0.4810 0.0098
vn -0.6802 -0.7210 -0.1324
vn 0.2145 -0.9757 0.0440
vn -0.1244 -0.9836 -0.1303
vn -0.1536 -0.9880 -0.0156
vn -0.9603 0.2533 -0.1172
vn -0.0116 0.1593 -0.9872
vn -0.0004 -0.0037 -1.0000
vn 0.9636 0.2602 -0.0618
vn 0.0045 -0.0057 -1.0000
vn -0.0063 -0.0108 -0.9999
vn -0.0006 0.0078 -1.0000
vn -0.0016 -0.0022 -1.0000
vn 0.9845 -0.1754 -0.0036
vn 0.9851 -0.1702 0.0237
vn 0.0008 0.0001 -1.0000
vn -0.0021 0.0160 -0.9999
vn -0.1280 0.9901 0.0579
vn -0.0489 0.9967 -0.0653
vn 0.2042 -0.3471 -0.9153
vn 0.6254 -0.6936 -0.3575
vn 0.6941 -0.7199 -0.0083
vn 0.7609 -0.4200 -0.4946
vn 0.8271 -0.3071 0.4707
vn 0.9642 -0.2067 -0.1658
vn 0.0071 0.0011 -1.0000
vn 0.0047 0.0030 -1.0000
vn 0.0046 0.0028 -1.0000
vn 0.7666 0.6421 0.0059
vn 0.7861 0.5830 -0.2054
vn 0.9675 0.2074 -0.1449
vn 0.9492 0.3113 0.0462
vn 0.2564 -0.9648 -0.0583
vn 0.4087 -0.0352 -0.9120
vn 0.7819 0.1987 -0.5909
vn 0.7716 0.5516 -0.3169
vn 0.3443 0.3695 -0.8631
vn -0.6801 0.7210 -0.1324
vn 0.9657 -0.2314 -0.1175
vn 0.2159 0.3367 -0.9165
vn 0.1349 0.5210 -0.8428
vn -0.0380 0.9850 -0.1684
vn -0.2285 0.7167 -0.6589
vn -0.3070 0.9419 -0.1363
vn -0.2206 0.3384 -0.9148
vn -0.3102 0.3512 -0.8834
vn -0.8577 0.4931 -0.1457
vn -0.4081 0.0325 -0.9124
vn -0.9118 -0.2325 -0.3385
vn -0.5861 -0.3360 -0.7373
vn 0.6835 -0.7174 -0.1347
vn -0.8229 -0.0147 -0.5680
vn -0.2340 -0.3321 -0.9137
vn -0.1342 -0.5155 -0.8463
vn -0.0531 -0.9466 -0.3180
vn 0.2335 -0.7665 -0.5983
vn 0.3070 -0.9419 -0.1363
vn 0.0646 -0.0297 -0.9975
vn -0.3548 -0.7768 -0.5203
vn -0.1263 -0.1306 -0.9834
vn -0.6877 -0.6292 0.3621
vn -0.1881 -0.0794 -0.9789
vn -0.7294 0.0177 -0.6839
vn -0.3762 -0.0103 -0.9265
vn -0.7059 0.1553 -0.6911
vn -0.2802 0.1472 -0.9486
vn -0.1728 0.1887 -0.9667
vn 0.0201 0.0861 -0.9961
vn 0.1205 0.6119 -0.7817
vn 0.2616 0.2935 -0.9195
vn 0.3614 0.1543 -0.9196
vn 0.5327 -0.0283 -0.8458
vn 0.2339 0.0837 -0.9686
vn 0.1188 0.0852 -0.9893
vn 0.3507 0.3786 -0.8565
vn 0.1793 0.2711 -0.9457
vn 0.0884 0.3990 -0.9127
vn -0.0047 0.1196 -0.9928
vn 0.0298 0.0651 -0.9974
vn -0.0923 0.1055 -0.9901
vn -0.1727 0.1884 -0.9668
vn -0.2540 0.1361 -0.9576
vn -0.1534 0.0429 -0.9872
vn 0.8847 -0.4538 0.1066
vn 0.6703 -0.6719 0.3150
vn 0.2220 -0.9400 0.2592
vn -0.1203 -0.9666 0.2265
vn -0.3752 -0.8072 0.4557
vn -0.6736 -0.7388 -0.0206
vn -0.8750 -0.3936 0.2820
vn -0.9101 -0.3888 0.1430
vn -0.6639 -0.7447 0.0675
vn -0.1884 -0.9567 -0.2220
vn 0.5673 -0.7797 -0.2652
vn 0.8847 -0.4648 0.0361
vn 0.9378 -0.0983 0.3330
vn 0.9555 0.0261 -0.2940
vn -0.5406 -0.3073 -0.7831
vn -0.1140 -0.0821 -0.9901
vn 0.4843 0.6137 0.6236
vn 0.8445 0.4520 -0.2871
vn 0.9379 0.1764 0.2986
vn 0.8671 0.4929 -0.0726
vn 0.3589 0.7859 -0.5036
vn -0.0069 -0.1211 -0.9926
vn 0.1007 -0.6462 -0.7565
vn 0.0628 -0.3024 -0.9511
vn 0.1570 -0.2647 -0.9515
vn 0.5286 -0.5509 -0.6458
vn -0.0080 0.0097 -0.9999
vn -0.0134 -0.0353 -0.9993
vn -0.1138 0.0236 -0.9932
vn -0.0672 0.0429 -0.9968
vn -0.7213 0.4832 0.4962
vn -0.4245 0.7536 0.5020
vn -0.1460 0.9875 -0.0587
vn 0.2395 0.9011 0.3615
vn -0.1540 0.9880 0.0089
vn -0.6015 0.7281 -0.3287
vn -0.9066 0.4197 -0.0451
vn -0.9995 -0.0307 0.0027
vn -0.8040 -0.3662 -0.4685
vn 0.2355 -0.6005 0.7642
vn -0.9910 -0.1221 0.0547
vn -0.6823 -0.2002 0.7032
vn -0.6243 -0.0666 -0.7783
vn -0.8975 -0.4292 -0.1014
vn -0.8648 -0.4929 0.0955
vn -0.9292 0.3672 -0.0425
vn -0.6651 0.7461 -0.0319
vn -0.2223 0.9143 0.3385
vn -0.0376 0.9550 0.2943
vn -0.6736 -0.7388 -0.0193
vn -0.6818 -0.7293 -0.0578
vn -0.4208 -0.9053 0.0578
vn -0.4543 -0.8890 -0.0578
vn -0.1217 -0.9901 0.0699
vn -0.1705 -0.9753 -0.1406
vn 0.1161 -0.9875 0.1067
vn 0.3300 -0.8883 -0.3193
vn 0.3914 -0.9067 -0.1572
vn 0.6985 -0.6968 0.1632
vn 0.6584 -0.7498 -0.0655
vn 0.8871 -0.4571 -0.0647
vn 0.8825 -0.4620 -0.0883
vn 0.9873 -0.1033 0.1209
vn 0.9705 -0.1826 -0.1572
vn 0.9705 0.1826 0.1572
vn 0.9347 0.2145 0.2833
vn 0.6709 0.1317 -0.7297
vn 0.8818 0.4690 -0.0489
vn 0.8217 0.5451 0.1666
vn 0.6103 0.7915 -0.0333
vn 0.6220 0.7767 -0.0994
vn 0.2918 0.9525 -0.0866
vn 0.2532 0.9649 0.0702
vn -0.6128 0.0617 0.7878
vn -0.0324 0.9901 0.1367
vn -0.1455 0.9848 -0.0946
vn -0.0932 0.9720 -0.2158
vn -0.4911 0.8710 -0.0130
vn -0.4433 0.8742 -0.1982
vn -0.6867 0.7121 0.1458
vn -0.8108 0.5255 -0.2579
vn -0.9031 0.3860 0.1884
vn -0.9130 0.1253 -0.3882
vn -0.8836 0.3828 -0.2698
vn -0.9328 -0.0165 -0.3600
vn 0.9875 0.1425 -0.0678
vn -0.0071 0.0011 -1.0000
vn -0.0017 -0.0003 -1.0000
vn -0.9888 -0.1491 0.0030
vn -0.9892 -0.1461 -0.0115
vn 0.7486 0.6599 0.0639
vn 0.9906 0.1362 0.0100
vn 0.6444 -0.0044 -0.7646
vn -0.9031 -0.4295 0.0040
vn -0.8177 -0.4793 -0.3187
vn -0.6733 -0.7202 -0.1671
vn -0.6291 -0.7615 0.1561
vn -0.0000 -0.0000 1.0000
vn -0.4051 -0.7926 -0.4557
vn -0.9249 0.2655 -0.2720
vn -0.8868 0.1442 -0.4391
vn -0.9951 0.0989 -0.0080
vn -0.0001 -0.0000 -1.0000
vn -0.2405 0.9359 0.2576
vn -0.1524 -0.9780 0.1425
vn -0.1719 -0.9850 0.0127
vn 0.1130 -0.8963 -0.4288
vn 0.3696 -0.9281 0.0454
vn 0.3832 -0.8879 0.2546
vn -0.8806 0.4661 -0.0858
vn 0.9871 0.1604 0.0033
vn 0.9840 0.1700 0.0537
vn 0.8287 -0.0432 0.5580
vn 0.6935 -0.5851 0.4204
vn 0.6225 -0.7091 -0.3312
vn 0.7670 -0.4014 -0.5006
vn 0.9664 -0.1818 -0.1817
vn -0.8270 -0.5568 0.0775
vn 0.2235 -0.9150 0.3359
vn -0.2181 -0.9089 -0.3555
vn -0.9869 0.1563 -0.0397
vn -0.9888 0.1491 -0.0030
vn 0.2432 -0.0579 -0.9683
vn 0.0784 0.0997 -0.9919
vn 0.9754 -0.1723 0.1376
vn 0.2451 0.0603 -0.9676
vn 0.4798 -0.8720 -0.0970
vn 0.2321 -0.9634 0.1344
vn 0.9761 -0.0974 -0.1945
vn -0.6884 -0.7039 -0.1751
vn -0.5543 0.0104 -0.8323
vn -0.9602 -0.1672 0.2239
vn 0.5794 0.8104 0.0871
vn 0.8744 0.4838 0.0370
vn 0.7823 0.5352 -0.3187
vn 0.6033 0.7828 -0.1522
vn 0.2664 0.8575 -0.4402
vn 0.1360 0.9836 0.1188
vn -0.0496 0.9064 -0.4195
vn -0.4036 0.8005 -0.4430
vn -0.0045 -0.0606 0.9982
vn -0.0221 -0.0033 0.9998
vn -0.0282 0.0377 0.9989
vn -0.6664 0.6913 0.2793
vn -0.0001 -0.0000 1.0000
vn 0.0193 -0.0191 0.9996
vn 0.0091 0.0176 0.9998
vn -0.0000 -0.0001 1.0000
vn 0.0719 0.9969 -0.0333
vn -0.2564 -0.9637 -0.0747
vn -0.9665 0.2072 -0.1511
vn -0.7861 0.5830 -0.2054
vn -0.9630 -0.2625 -0.0615
vn 0.2564 0.9646 -0.0614
vn 0.7681 -0.5696 -0.2926
s 0
usemtl part_1
f 3//1 134//1 2//1
f 2//2 5//2 4//2
f 132//3 129//3 4//3
f 6//4 7//4 8//4
f 8//5 7//5 9//5
f 9//6 7//6 10//6
f 7//7 11//7 10//7
f 13//8 12//8 11//8
f 11//9 7//9 13//9
f 7//10 6//10 14//10
f 7//11 15//11 13//11
f 16//12 13//12 15//12
f 19//13 20//13 16//13
f 19//14 16//14 17//14
f 17//15 21//15 19//15
f 21//16 22//16 23//16
f 23//17 19//17 21//17
f 19//18 23//18 24//18
f 25//19 20//19 19//19
f 19//20 24//20 25//20
f 16//21 20//21 25//21
f 26//22 28//22 29//22
f 29//23 13//23 16//23
f 16//24 27//24 29//24
f 13//25 29//25 30//25
f 28//26 31//26 30//26
f 13//27 30//27 31//27
f 33//28 34//28 11//28
f 34//29 10//29 11//29
f 10//30 34//30 35//30
f 58//31 37//31 9//31
f 52//32 9//32 37//32
f 39//33 38//33 37//33
f 39//34 37//34 58//34
f 58//35 40//35 39//35
f 57//36 41//36 39//36
f 41//37 42//37 39//37
f 37//38 38//38 43//38
f 44//39 46//39 47//39
f 46//40 48//40 47//40
f 48//41 46//41 49//41
f 50//42 48//42 49//42
f 18//43 37//43 50//43
f 47//44 50//44 37//44
f 44//45 45//45 37//45
f 37//46 45//46 47//46
f 50//47 47//47 48//47
f 50//48 17//48 18//48
f 18//49 17//49 16//49
f 54//50 15//50 7//50
f 7//51 14//51 54//51
f 16//52 15//52 18//52
f 37//53 18//53 52//53
f 55//54 52//54 18//54
f 18//55 53//55 55//55
f 43//56 44//56 37//56
f 43//57 42//57 56//57
f 42//58 43//58 38//58
f 42//59 41//59 56//59
f 57//60 56//60 41//60
f 39//61 40//61 57//61
f 59//62 60//62 58//62
f 59//63 58//63 9//63
f 9//64 61//64 59//64
f 61//65 62//65 63//65
f 63//66 59//66 61//66
f 64//67 60//67 59//67
f 59//68 63//68 64//68
f 58//69 60//69 64//69
f 58//70 64//70 57//70
f 63//71 65//71 64//71
f 63//72 66//72 65//72
f 66//73 63//73 62//73
f 62//74 61//74 9//74
f 9//75 10//75 35//75
f 9//76 35//76 62//76
f 35//77 34//77 36//77
f 67//78 36//78 34//78
f 33//79 67//79 34//79
f 11//80 12//80 33//80
f 31//81 33//81 13//81
f 31//82 28//82 32//82
f 68//83 32//83 28//83
f 16//84 25//84 26//84
f 24//85 69//85 25//85
f 69//86 24//86 23//86
f 22//87 21//87 17//87
f 17//88 50//88 49//88
f 17//89 49//89 22//89
f 49//90 46//90 51//90
f 70//91 51//91 46//91
f 44//92 70//92 46//92
f 47//93 45//93 44//93
f 49//94 51//94 71//94
f 71//95 72//95 49//95
f 22//96 49//96 72//96
f 22//97 69//97 23//97
f 25//98 69//98 73//98
f 26//99 25//99 73//99
f 73//100 74//100 26//100
f 26//101 68//101 28//101
f 68//102 74//102 75//102
f 31//103 75//103 76//103
f 33//104 76//104 77//104
f 36//105 77//105 78//105
f 66//106 78//106 79//106
f 65//107 79//107 80//107
f 80//108 57//108 64//108
f 80//109 64//109 65//109
f 79//110 65//110 66//110
f 78//111 66//111 62//111
f 78//112 62//112 35//112
f 78//113 35//113 36//113
f 77//114 36//114 67//114
f 77//115 67//115 33//115
f 76//116 33//116 31//116
f 75//117 31//117 32//117
f 75//118 32//118 68//118
f 74//119 68//119 26//119
f 74//120 81//120 82//120
f 75//121 82//121 83//121
f 77//122 76//122 84//122
f 77//123 84//123 85//123
f 78//124 85//124 86//124
f 78//125 86//125 87//125
f 79//126 87//126 88//126
f 88//127 80//127 79//127
f 87//128 79//128 78//128
f 85//129 78//129 77//129
f 83//130 76//130 75//130
f 82//131 75//131 74//131
f 74//132 89//132 81//132
f 89//133 74//133 73//133
f 72//134 73//134 69//134
f 69//135 22//135 72//135
f 72//136 90//136 91//136
f 72//137 91//137 92//137
f 73//138 92//138 89//138
f 92//139 73//139 72//139
f 90//140 72//140 71//140
f 51//141 70//141 71//141
f 93//142 71//142 70//142
f 70//143 44//143 93//143
f 44//144 43//144 93//144
f 43//145 56//145 93//145
f 94//146 93//146 56//146
f 95//147 94//147 56//147
f 56//148 57//148 95//148
f 57//149 80//149 95//149
f 94//150 96//150 97//150
f 93//151 97//151 98//151
f 93//152 98//152 99//152
f 71//153 99//153 90//153
f 99//154 71//154 93//154
f 97//155 93//155 94//155
f 96//156 94//156 95//156
f 80//157 88//157 95//157
f 100//158 88//158 87//158
f 76//159 83//159 84//159
f 100//160 101//160 104//160
f 104//161 88//161 100//161
f 102//162 104//162 101//162
f 101//163 100//163 87//163
f 87//164 125//164 101//164
f 104//165 103//165 105//165
f 106//166 105//166 107//166
f 109//167 107//167 110//167
f 111//168 109//168 112//168
f 125//169 87//169 86//169
f 86//170 124//170 125//170
f 124//171 86//171 85//171
f 85//172 123//172 124//172
f 123//173 85//173 84//173
f 84//174 122//174 123//174
f 84//175 121//175 122//175
f 121//176 84//176 83//176
f 83//177 120//177 121//177
f 120//178 83//178 82//178
f 82//179 119//179 120//179
f 119//180 82//180 81//180
f 81//181 118//181 119//181
f 118//182 81//182 89//182
f 89//183 117//183 118//183
f 117//184 89//184 92//184
f 92//185 115//185 117//185
f 116//186 117//186 115//186
f 115//187 92//187 91//187
f 91//188 114//188 115//188
f 90//189 113//189 114//189
f 114//190 91//190 90//190
f 99//191 112//191 113//191
f 113//192 90//192 99//192
f 95//193 88//193 96//193
f 99//194 111//194 112//194
f 111//195 99//195 98//195
f 98//196 109//196 111//196
f 109//197 98//197 97//197
f 97//198 108//198 109//198
f 97//199 106//199 108//199
f 106//200 97//200 96//200
f 96//201 104//201 106//201
f 104//202 96//202 88//202
f 105//203 106//203 104//203
f 103//204 104//204 102//204
f 127//205 3//205 126//205
f 128//206 9//206 52//206
f 128//207 8//207 9//207
f 128//208 143//208 6//208
f 6//209 8//209 128//209
f 143//2 126//2 129//2
f 129//2 6//2 143//2
f 126//210 3//210 2//210
f 132//2 14//2 6//2
f 4//211 129//211 126//211
f 126//212 2//212 4//212
f 101//213 130//213 102//213
f 130//214 101//214 125//214
f 130//215 125//215 124//215
f 124//216 1//216 130//216
f 130//217 1//217 3//217
f 1//218 124//218 123//218
f 134//217 3//217 1//217
f 54//2 14//2 132//2
f 132//2 133//2 54//2
f 131//219 134//219 133//219
f 131//220 133//220 132//220
f 132//221 5//221 131//221
f 5//222 2//222 131//222
f 131//223 2//223 134//223
f 122//224 135//224 1//224
f 1//225 123//225 122//225
f 135//226 122//226 121//226
f 120//227 136//227 135//227
f 135//228 121//228 120//228
f 134//217 135//217 136//217
f 134//229 137//229 133//229
f 15//230 54//230 53//230
f 53//231 18//231 15//231
f 53//2 54//2 142//2
f 133//2 142//2 54//2
f 117//232 116//232 138//232
f 119//233 138//233 136//233
f 136//234 120//234 119//234
f 138//235 119//235 118//235
f 138//236 118//236 117//236
f 133//237 137//237 139//237
f 144//238 142//238 141//238
f 142//2 55//2 53//2
f 139//2 141//2 140//2
f 140//239 141//239 142//239
f 55//2 142//2 144//2
f 52//240 55//240 143//240
f 143//241 128//241 52//241
f 143//2 55//2 144//2
f 144//242 145//242 143//242
f 145//243 126//243 143//243
f 126//244 145//244 127//244
f 141//245 139//245 145//245
f 146//246 127//246 145//246
f 145//247 139//247 146//247
f 145//248 144//248 141//248
f 139//249 137//249 146//249
f 133//250 139//250 140//250
f 140//251 142//251 133//251
f 147//217 148//217 146//217
f 113//252 148//252 147//252
f 115//253 147//253 116//253
f 147//254 115//254 114//254
f 147//255 114//255 113//255
f 148//256 113//256 112//256
f 112//257 110//257 148//257
f 148//217 110//217 146//217
f 110//258 112//258 109//258
f 110//217 107//217 146//217
f 107//259 109//259 108//259
f 105//217 103//217 127//217
f 127//260 103//260 102//260
f 102//261 3//261 127//261
f 3//262 102//262 130//262
f 127//217 107//217 105//217
f 107//263 108//263 106//263
f 107//264 127//264 146//264
f 147//217 146//217 137//217
f 116//265 147//265 137//265
f 138//266 116//266 137//266
f 138//267 137//267 134//267
f 136//217 138//217 134//217
f 134//217 1//217 135//217
f 4//268 5//268 132//268
f 6//2 129//2 132//2
f 26//269 27//269 16//269
f 29//270 27//270 26//270
f 30//271 29//271 28//271
f 33//272 12//272 13//272
f 57//273 40//273 58//273
f 38//274 39//274 42//274
