# Blender 4.2.3 LTS
# www.blender.org
mtllib part_8_simplified.mtl
o part_8_simplified
v -0.010502 0.017550 0.194990
v -0.000250 0.014851 0.172300
v -0.017299 -0.021312 0.196256
v -0.012583 0.010600 0.169408
v -0.014854 -0.026269 0.172250
v -0.012512 0.047250 0.170090
v -0.015500 0.084649 0.173137
v -0.011650 0.077674 0.162500
v -0.005375 0.061000 0.172250
v 0.001250 0.073250 0.171250
v 0.001208 0.073927 0.198043
v 0.004859 0.059568 0.207850
v 0.001063 0.004300 0.170750
v 0.001033 0.008297 0.197051
v -0.003477 0.002500 0.206576
v -0.009750 0.004000 0.169250
v -0.008608 -0.019963 0.203728
v -0.009750 0.004500 0.161951
v -0.008630 0.051500 0.167185
v -0.009342 -0.025942 0.160250
v -0.002866 0.088554 0.160250
v -0.002966 0.091354 0.172250
v 0.098915 0.091715 0.172250
v 0.096986 0.088588 0.195716
v 0.098461 0.088352 0.160250
v 0.103329 0.073946 0.205334
v 0.107602 0.079420 0.162500
v 0.104630 0.051500 0.167185
v 0.094937 0.073700 0.171050
v 0.105300 0.004500 0.162211
v 0.106071 0.004000 0.169250
v 0.095500 0.010366 0.171336
v 0.094904 0.072234 0.197968
v 0.093928 0.053444 0.207850
v 0.094937 0.009719 0.197071
v 0.093397 0.013968 0.208313
v 0.106501 0.042034 0.192461
v 0.112999 0.030248 0.198290
v 0.113000 0.044224 0.189082
v 0.106500 0.061000 0.197250
v 0.099477 0.002500 0.206576
v 0.110539 -0.013700 0.208520
v 0.100237 0.077606 0.209382
v 0.070000 0.085257 0.202750
v 0.082250 0.060847 0.207750
v 0.070733 0.053649 0.208083
v 0.025104 0.054218 0.208295
v 0.046393 0.037047 0.209253
v 0.051320 0.036030 0.202750
v 0.045044 0.060783 0.201508
v 0.050956 0.060783 0.200596
v 0.056803 0.023971 0.209253
v 0.056803 0.025034 0.199250
v 0.038487 0.025964 0.199613
v 0.040165 0.023496 0.209250
v 0.046194 0.004526 0.209250
v 0.026938 0.019617 0.209250
v 0.068631 0.017950 0.209250
v 0.026000 0.085257 0.202750
v 0.030401 0.010770 0.199250
v 0.066489 0.012380 0.199250
v -0.014957 0.071985 0.208295
v -0.006910 0.073419 0.205626
v -0.000900 0.088487 0.196286
v -0.001574 -0.024186 0.209451
v 0.000192 -0.025472 0.205116
v 0.019461 -0.009623 0.207485
v 0.048000 -0.019284 0.207750
v 0.078696 -0.008247 0.207355
v 0.100030 -0.023266 0.205007
v 0.105342 -0.025942 0.160250
v 0.103083 0.061000 0.172250
v 0.109102 0.017357 0.194418
v 0.106449 -0.036310 0.190975
v 0.108583 0.010600 0.169408
v 0.110833 -0.026332 0.172250
v 0.108512 0.047250 0.170090
v 0.111500 0.085750 0.173079
v 0.111662 0.090854 0.189933
v 0.099613 -0.035367 0.172469
v 0.093586 -0.034091 0.181007
v -0.003375 -0.035481 0.173808
v 0.002414 -0.030250 0.181007
v -0.002838 -0.029167 0.172773
v 0.098625 -0.029026 0.174518
v 0.002615 0.013272 0.208083
v -0.004143 -0.037476 0.194013
v -0.002271 0.093676 0.194521
v -0.017002 0.019050 0.196831
v -0.009568 0.061000 0.197250
v -0.017000 0.043937 0.189193
v -0.010501 0.042034 0.192461
vn 0.2204 0.9753 -0.0164
vn -0.9838 0.0472 -0.1731
vn -0.9087 0.0238 -0.4167
vn -0.9492 -0.0505 -0.3105
vn -0.9829 -0.0179 -0.1835
vn -0.9314 0.0086 -0.3638
vn -0.2225 -0.0177 0.9748
vn -0.2434 -0.0260 0.9696
vn 0.1226 0.0147 0.9923
vn 0.9385 0.0027 -0.3454
vn 0.7394 -0.0069 0.6732
vn 0.8596 -0.5005 0.1024
vn 0.8467 -0.5259 0.0809
vn 0.9996 0.0195 -0.0196
vn 0.9999 0.0133 0.0009
vn -0.8297 -0.0422 0.5566
vn -0.7015 0.4525 -0.5506
vn -0.5309 -0.0850 -0.8432
vn -0.9939 -0.0255 0.1071
vn -0.2217 -0.0491 -0.9739
vn -0.3853 -0.0076 -0.9228
vn -0.3635 0.9279 0.0823
vn -0.2427 0.9687 0.0524
vn -0.9953 0.0009 -0.0967
vn -0.2416 -0.5339 -0.8103
vn 0.1744 0.2411 -0.9547
vn 0.3491 -0.2536 -0.9021
vn -0.8782 -0.4746 0.0590
vn -0.9901 0.0117 -0.1401
vn -0.0334 -0.0132 0.9994
vn -0.2901 0.0151 0.9569
vn -0.6515 0.3794 0.6570
vn 0.0035 -0.9913 -0.1318
vn -0.1364 -0.5845 -0.7999
vn -0.0533 -0.0975 -0.9938
vn 0.0742 -0.1642 -0.9836
vn 0.0095 -0.1961 -0.9805
vn -0.0417 -0.0523 0.9978
vn -0.0185 0.0131 0.9997
vn -0.0229 0.0273 0.9994
vn 0.4696 -0.7459 0.4724
vn 0.2303 0.0096 -0.9731
vn -0.1519 -0.0879 -0.9845
vn -0.7010 -0.5581 -0.4439
vn -0.6402 -0.0759 -0.7644
vn 0.0525 0.9930 0.1055
vn -0.0276 0.9672 0.2525
vn 0.8783 -0.4036 -0.2562
vn 0.0225 0.0288 0.9993
vn -0.0329 0.0149 0.9993
vn -0.1771 -0.0563 0.9826
vn -0.0002 -0.0000 1.0000
vn 0.0001 -0.0002 1.0000
vn 0.0164 0.0317 0.9994
vn -0.8997 -0.4340 -0.0461
vn -0.0881 0.0707 -0.9936
vn -0.0206 -0.0158 -0.9997
vn 0.0589 0.0451 -0.9972
vn 0.0533 0.0463 -0.9975
vn -0.1521 -0.0683 -0.9860
vn -0.0000 0.0877 -0.9962
vn 0.9494 -0.0307 -0.3126
vn -0.0071 -0.0472 0.9989
vn 0.1296 -0.5592 -0.8188
vn -0.0052 0.0466 -0.9989
vn -0.0000 -0.8946 -0.4469
vn -0.0016 -0.9014 -0.4329
vn -0.9310 -0.0380 -0.3629
vn -0.9582 -0.0585 -0.2801
vn -0.0246 -0.1751 -0.9842
vn 0.5450 0.5630 0.6213
vn -0.0223 -0.1770 -0.9840
vn 0.0249 0.0038 0.9997
vn 0.0971 0.0255 0.9949
vn 0.9916 -0.0487 -0.1202
vn -0.4730 0.8571 -0.2040
vn 0.9068 0.0293 -0.4206
vn 0.8864 -0.4409 -0.1409
vn 0.7729 -0.6330 -0.0433
vn 0.9647 0.2581 -0.0521
vn 0.0003 -0.9930 -0.1185
vn 0.3384 0.9407 -0.0232
vn 0.0267 0.9951 0.0953
vn 0.5384 -0.0879 -0.8381
vn 0.9651 -0.1989 -0.1702
vn 0.0341 -0.9984 -0.0458
vn 0.3696 0.0057 -0.9292
vn 0.1385 -0.0463 -0.9893
vn 0.9997 -0.0236 -0.0016
vn 0.0942 0.1040 -0.9901
vn -0.0896 0.9756 0.2006
vn -0.0395 -0.0169 0.9991
vn -0.0205 0.0927 0.9955
vn -0.8265 -0.5621 -0.0322
vn -0.9846 -0.0105 -0.1744
vn -0.9941 -0.0084 0.1083
vn -0.9908 0.0606 -0.1212
vn -0.1408 0.0032 0.9900
vn -0.4729 0.8810 0.0118
vn 0.9827 -0.0370 -0.1815
vn 0.1461 -0.0181 0.9891
vn 0.9094 0.0234 -0.4153
vn 0.9314 0.0086 -0.3638
vn 0.9817 -0.0170 -0.1898
vn 0.9463 -0.0486 -0.3196
vn 0.3813 0.7246 -0.5740
vn -0.9118 0.0283 -0.4097
vn 0.9548 -0.0178 0.2966
vn -0.6696 -0.7254 -0.1595
vn -0.9084 -0.4166 -0.0350
vn 0.7091 0.6715 -0.2150
vn -0.9595 0.2786 -0.0418
vn 0.2470 -0.0544 0.9675
vn -0.9262 -0.3402 -0.1626
vn -0.6897 -0.7179 0.0943
vn -0.8400 -0.5417 -0.0305
vn -0.4013 0.0129 -0.9159
vn 0.2160 -0.9550 -0.2032
vn -0.9902 -0.0342 0.1353
vn 0.9696 -0.0567 -0.2381
vn 0.9994 0.0290 -0.0184
vn 0.7682 0.1041 0.6318
vn -0.3584 0.3662 -0.8587
vn 0.8980 -0.1468 -0.4149
vn 0.9786 -0.0610 0.1966
vn 0.0335 0.7956 -0.6050
vn 0.8227 -0.1594 -0.5457
vn -0.0327 -0.7754 -0.6306
vn 0.4075 0.9022 -0.1413
vn 0.0422 0.0974 -0.9944
vn -0.0455 0.0909 -0.9948
vn -0.0112 0.4637 -0.8859
vn 0.0243 0.0991 0.9948
vn 0.0737 0.0282 0.9969
vn 0.0259 -0.7597 0.6497
vn 0.0330 -0.9657 -0.2576
vn 0.0078 -0.9952 -0.0980
vn 0.0038 -0.1622 -0.9868
vn -0.2271 -0.9651 -0.1306
vn 0.5404 0.8323 -0.1236
vn 0.6508 0.7451 -0.1461
vn -0.0219 0.9826 -0.1846
vn -0.0257 0.9801 -0.1966
vn -0.0680 0.0592 -0.9959
vn -0.5300 -0.8384 -0.1273
vn -0.7709 -0.6348 0.0525
vn -0.6143 -0.7826 -0.1007
vn -0.8110 0.0616 -0.5818
vn -0.1832 -0.9829 0.0176
vn 0.6024 -0.7543 -0.2609
vn 0.1927 -0.9739 -0.1198
vn -0.6125 0.7814 -0.1194
vn -0.2325 0.2661 -0.9355
vn 0.9977 0.0580 -0.0364
vn -0.0555 0.9642 -0.2594
vn 0.0644 -0.6190 0.7827
vn -0.5899 -0.5608 0.5809
vn -0.6493 -0.0813 0.7562
vn 0.0204 0.9943 -0.1043
vn 0.2463 -0.3523 0.9029
vn 0.3977 -0.5304 0.7487
vn 0.0311 0.0248 0.9992
vn 0.9825 -0.0636 -0.1750
vn 0.4818 -0.8053 0.3453
vn -0.0011 0.0245 -0.9997
vn 0.0366 -0.8206 -0.5703
vn -0.5555 -0.7088 0.4347
vn 0.9987 0.0279 0.0424
vn 0.8313 0.0886 0.5487
vn 0.4272 0.8642 -0.2658
vn -0.0035 0.9987 0.0512
vn -0.4746 0.8769 -0.0766
vn -0.7714 0.5948 0.2262
vn -0.9883 0.0051 0.1527
vn -0.9970 0.0226 0.0734
vn 0.3432 0.5905 0.7304
vn 0.9919 0.1260 -0.0181
vn -0.2405 0.9160 -0.3210
vn -0.9946 0.0088 -0.1031
vn 0.5965 0.7830 0.1764
vn 0.3673 -0.2729 -0.8892
vn 0.7580 -0.6397 0.1271
vn -0.1768 -0.9619 -0.2084
vn -0.9982 0.0500 0.0334
vn -0.9696 -0.0581 -0.2378
vn 0.8800 -0.4748 0.0134
vn 0.0555 0.0149 -0.9983
vn 0.6976 0.1430 -0.7021
vn -0.0851 -0.1628 -0.9830
vn 0.0868 0.0898 -0.9922
vn 0.1412 -0.0238 -0.9897
vn 0.8843 -0.4308 -0.1800
vn 0.9822 -0.0899 0.1647
vn -0.0460 0.8380 0.5438
vn 0.0472 0.5156 0.8555
vn -0.0901 0.1023 -0.9907
s 0
usemtl part_8
f 2//1 89//1 1//1
f 89//2 4//2 5//2
f 4//3 20//3 5//3
f 7//4 8//4 6//4
f 6//5 8//5 20//5
f 20//6 4//6 6//6
f 4//7 2//7 6//7
f 6//8 2//8 9//8
f 9//9 2//9 10//9
f 12//10 14//10 11//10
f 13//11 10//11 2//11
f 14//12 86//12 15//12
f 14//13 15//13 13//13
f 17//14 20//14 16//14
f 16//15 20//15 18//15
f 19//16 18//16 20//16
f 21//17 8//17 7//17
f 28//18 29//18 27//18
f 30//19 31//19 28//19
f 28//20 31//20 32//20
f 32//21 29//21 28//21
f 26//22 27//22 29//22
f 29//23 33//23 26//23
f 34//24 33//24 35//24
f 39//25 38//25 37//25
f 33//26 40//26 37//26
f 37//27 38//27 35//27
f 35//28 41//28 36//28
f 34//29 35//29 36//29
f 36//30 42//30 43//30
f 43//31 34//31 36//31
f 34//32 26//32 33//32
f 22//33 23//33 24//33
f 44//34 24//34 26//34
f 34//35 45//35 26//35
f 44//36 45//36 46//36
f 44//37 26//37 45//37
f 45//38 34//38 43//38
f 12//39 47//39 43//39
f 48//40 43//40 47//40
f 54//41 49//41 48//41
f 50//42 49//42 54//42
f 49//43 50//43 51//43
f 49//44 52//44 48//44
f 53//45 49//45 51//45
f 53//46 54//46 52//46
f 55//47 52//47 54//47
f 48//48 55//48 54//48
f 56//49 47//49 57//49
f 47//50 55//50 48//50
f 55//51 47//51 56//51
f 52//52 55//52 56//52
f 56//53 58//53 52//53
f 58//54 46//54 52//54
f 53//55 52//55 49//55
f 50//56 54//56 60//56
f 54//57 53//57 61//57
f 53//58 44//58 61//58
f 51//59 44//59 53//59
f 51//60 50//60 59//60
f 51//61 59//61 44//61
f 46//62 61//62 44//62
f 43//63 62//63 12//63
f 63//64 64//64 59//64
f 60//65 59//65 50//65
f 44//66 59//66 64//66
f 64//67 24//67 44//67
f 59//68 60//68 47//68
f 47//69 60//69 57//69
f 59//70 47//70 12//70
f 11//71 63//71 12//71
f 63//72 59//72 12//72
f 86//73 12//73 62//73
f 62//74 65//74 86//74
f 14//75 12//75 86//75
f 7//76 22//76 21//76
f 20//77 8//77 19//77
f 64//78 63//78 8//78
f 8//79 21//79 64//79
f 22//80 64//80 21//80
f 24//81 64//81 22//81
f 11//82 10//82 8//82
f 8//83 63//83 11//83
f 8//84 10//84 19//84
f 16//85 15//85 17//85
f 15//86 16//86 13//86
f 19//87 10//87 13//87
f 13//88 16//88 19//88
f 16//89 18//89 19//89
f 17//90 15//90 67//90
f 68//91 65//91 42//91
f 42//92 36//92 69//92
f 42//93 69//93 68//93
f 32//94 41//94 35//94
f 70//95 41//95 31//95
f 30//96 71//96 31//96
f 31//97 71//97 70//97
f 29//98 32//98 72//98
f 73//99 32//99 35//99
f 42//100 74//100 73//100
f 77//101 32//101 75//101
f 76//102 71//102 75//102
f 77//103 75//103 71//103
f 71//104 27//104 77//104
f 77//105 27//105 78//105
f 23//106 78//106 27//106
f 28//107 27//107 71//107
f 71//108 30//108 28//108
f 25//109 27//109 26//109
f 26//110 24//110 25//110
f 27//111 25//111 23//111
f 25//112 24//112 23//112
f 72//113 32//113 77//113
f 72//114 77//114 37//114
f 40//115 33//115 72//115
f 29//116 72//116 33//116
f 37//117 35//117 33//117
f 39//118 37//118 77//118
f 37//119 40//119 72//119
f 39//120 77//120 78//120
f 39//121 78//121 79//121
f 79//122 42//122 38//122
f 35//123 38//123 73//123
f 42//124 73//124 38//124
f 73//125 74//125 76//125
f 81//126 82//126 83//126
f 82//127 84//127 83//127
f 85//128 81//128 83//128
f 83//129 84//129 66//129
f 67//130 68//130 66//130
f 68//131 69//131 70//131
f 70//132 66//132 68//132
f 65//133 68//133 67//133
f 67//134 86//134 65//134
f 65//135 87//135 74//135
f 82//136 81//136 74//136
f 74//137 87//137 82//137
f 5//138 84//138 82//138
f 84//139 5//139 20//139
f 17//140 66//140 20//140
f 20//141 66//141 84//141
f 66//142 70//142 85//142
f 85//143 83//143 66//143
f 69//144 41//144 70//144
f 32//145 31//145 41//145
f 87//146 3//146 5//146
f 5//147 82//147 87//147
f 85//148 80//148 81//148
f 81//149 80//149 74//149
f 74//150 80//150 76//150
f 76//151 85//151 71//151
f 85//152 70//152 71//152
f 80//153 85//153 76//153
f 76//154 75//154 73//154
f 32//155 73//155 75//155
f 74//156 42//156 65//156
f 87//157 65//157 3//157
f 3//158 65//158 62//158
f 22//159 88//159 79//159
f 46//160 45//160 43//160
f 43//161 48//161 46//161
f 48//162 52//162 46//162
f 58//163 61//163 46//163
f 61//164 58//164 56//164
f 61//165 60//165 54//165
f 56//166 60//166 61//166
f 60//167 56//167 57//167
f 79//168 38//168 39//168
f 42//169 79//169 43//169
f 23//170 79//170 78//170
f 79//171 23//171 22//171
f 7//172 88//172 22//172
f 88//173 7//173 62//173
f 89//174 3//174 62//174
f 91//175 89//175 62//175
f 1//176 89//176 14//176
f 2//177 14//177 13//177
f 4//178 89//178 2//178
f 5//179 3//179 89//179
f 1//180 14//180 2//180
f 89//181 91//181 92//181
f 11//182 90//182 9//182
f 6//183 92//183 91//183
f 62//184 7//184 91//184
f 7//185 6//185 91//185
f 9//186 10//186 11//186
f 11//187 14//187 90//187
f 90//188 14//188 92//188
f 14//189 89//189 92//189
f 86//190 67//190 15//190
f 67//191 66//191 17//191
f 92//192 6//192 9//192
f 9//193 90//193 92//193
f 62//194 43//194 79//194
f 79//195 88//195 62//195
f 69//196 36//196 41//196
