# Blender 4.2.3 LTS
# www.blender.org
mtllib part_2_simplified.mtl
o part_2_simplified
v 0.154436 0.087215 -0.027000
v 0.130320 0.036030 -0.033500
v 0.130758 0.059437 -0.033500
v 0.124177 0.061016 -0.033500
v 0.130462 0.059938 -0.037000
v 0.132535 0.062876 -0.037000
v 0.121259 0.062323 -0.037000
v 0.120905 0.061868 -0.030000
v 0.107556 0.061681 -0.029977
v 0.088121 0.028000 -0.029968
v 0.107352 -0.005619 -0.030028
v 0.090967 -0.021311 -0.030107
v 0.070682 0.005917 -0.030127
v 0.067199 0.022449 -0.030121
v 0.091756 -0.022587 -0.040222
v 0.083264 -0.015873 -0.040441
v 0.107378 -0.008369 -0.030000
v 0.118137 -0.031908 -0.030088
v 0.101907 -0.026566 -0.030119
v 0.121259 -0.006323 -0.030000
v 0.132535 -0.006876 -0.030000
v 0.146622 -0.008370 -0.030000
v 0.151722 -0.027630 -0.030245
v 0.120905 -0.005868 -0.037000
v 0.132077 -0.007312 -0.037000
v 0.165891 0.028000 -0.029977
v 0.138189 0.027928 -0.030000
v 0.115811 0.028072 -0.030000
v 0.067199 0.033551 -0.030121
v 0.070682 0.050083 -0.030127
v 0.090967 0.077311 -0.030107
v 0.091756 0.078587 -0.040222
v 0.066427 0.033821 -0.038316
v 0.065264 0.033098 -0.040862
v 0.077750 -0.007669 -0.037662
v 0.070468 0.002030 -0.040436
v 0.065799 0.022516 -0.039518
v 0.153009 -0.027664 -0.039776
v 0.134482 -0.032691 -0.038279
v 0.101113 -0.027648 -0.039561
v 0.117556 -0.033441 -0.040356
v 0.146680 -0.005757 -0.030017
v 0.163241 -0.021344 -0.030119
v 0.183291 0.006007 -0.030135
v 0.186801 0.022449 -0.030121
v 0.188391 0.022679 -0.039981
v 0.183291 0.049993 -0.030135
v 0.186801 0.033551 -0.030121
v 0.132077 0.063312 -0.030000
v 0.152854 0.083923 -0.039667
v 0.151701 0.083745 -0.030165
v 0.118114 0.087871 -0.030108
v 0.101072 0.083619 -0.039609
v 0.101907 0.082566 -0.030119
v 0.130394 0.088616 -0.037706
v 0.117216 0.089343 -0.040640
v 0.134833 0.089642 -0.040575
v 0.146440 0.061673 -0.029970
v 0.124024 0.060700 -0.037000
v 0.115811 0.027928 -0.037000
v 0.124342 -0.005070 -0.037000
v 0.130758 -0.003437 -0.037000
v 0.130462 -0.003938 -0.033500
v 0.123680 0.019970 -0.033500
v 0.123878 -0.004634 -0.033500
v 0.119194 0.023543 -0.027001
v 0.118694 0.028000 -0.037000
v 0.081060 -0.017477 -0.027000
v 0.103761 -0.032984 -0.027000
v 0.096203 -0.028363 -0.030549
v 0.112932 -0.034668 -0.030549
v 0.081860 -0.017691 -0.030549
v 0.069222 -0.000310 -0.030772
v 0.063169 0.024733 -0.030752
v 0.065162 0.044077 -0.031003
v 0.072259 0.063781 -0.027798
v 0.079762 0.071518 -0.030549
v 0.091239 0.080347 -0.031525
v 0.097811 0.086432 -0.028228
v 0.122625 0.092608 -0.030347
v 0.133253 0.091087 -0.031525
v 0.149360 0.087940 -0.030964
v 0.167205 0.078055 -0.030700
v 0.182651 0.059392 -0.031003
v 0.190176 0.044213 -0.027929
v 0.190618 0.031960 -0.031017
v 0.192025 0.029897 -0.037907
v 0.191652 0.022336 -0.041000
v 0.188291 0.033363 -0.039804
v 0.163241 0.077344 -0.030119
v 0.170256 0.070439 -0.038135
v 0.162266 0.078665 -0.040414
v 0.077750 0.063669 -0.037662
v 0.080111 0.068908 -0.040319
v 0.069879 0.052589 -0.040510
v 0.062583 0.020098 -0.041000
v 0.066130 0.051537 -0.041000
v 0.081060 0.073477 -0.041000
v 0.099579 0.086822 -0.041000
v 0.125875 0.092890 -0.041000
v 0.152365 0.087737 -0.041000
v 0.176417 0.070568 -0.040181
v 0.182128 0.056940 -0.040726
v 0.187136 0.053353 -0.041000
v 0.183138 0.050915 -0.037954
v 0.063169 0.031267 -0.037248
v 0.065162 0.011923 -0.036997
v 0.071872 -0.007288 -0.040493
v 0.101353 -0.032012 -0.041000
v 0.128824 -0.035126 -0.041000
v 0.162227 -0.022653 -0.040410
v 0.184984 0.006184 -0.040438
v 0.176431 -0.007437 -0.037674
v 0.174449 -0.012082 -0.040240
v 0.188307 0.008850 -0.037451
v 0.181646 -0.007678 -0.041000
v 0.154436 -0.031215 -0.041000
v 0.127732 -0.036224 -0.037451
v 0.145406 -0.033534 -0.037451
v 0.164646 -0.024300 -0.037440
v 0.180653 -0.007307 -0.037451
v 0.110001 -0.033937 -0.037451
v 0.093587 -0.026853 -0.037451
v 0.079762 -0.015518 -0.037451
v 0.068001 0.053321 -0.037300
v 0.079117 0.070426 -0.037036
v 0.092601 0.081844 -0.036997
v 0.110382 0.089716 -0.037248
v 0.131165 0.091864 -0.037199
v 0.148278 0.088601 -0.037451
v 0.164158 0.080388 -0.037451
v 0.184144 0.056583 -0.036997
v 0.190240 0.031956 -0.036452
v 0.130750 -0.036118 -0.030549
v 0.148278 -0.032601 -0.030549
v 0.174052 -0.015226 -0.031003
v 0.188314 0.008206 -0.030647
v 0.139609 -0.036032 -0.027000
v 0.166217 -0.024154 -0.027657
v 0.189062 0.006467 -0.026990
v 0.066130 0.004463 -0.027000
v 0.062907 0.040296 -0.027000
v 0.118888 0.092756 -0.027000
v 0.181646 0.063678 -0.027000
v 0.135152 0.031109 -0.027000
v 0.134439 0.031018 -0.037000
v 0.138189 0.028072 -0.037000
v 0.133085 0.022591 -0.036046
v 0.131202 0.020658 -0.027000
v 0.121307 0.033758 -0.033500
v 0.123847 0.036156 -0.027000
vn -0.0000 -0.0000 -1.0000
vn -0.2317 -0.9655 -0.1187
vn -0.0489 0.9967 -0.0653
vn -0.0008 0.0002 -1.0000
vn 0.0021 0.0030 -1.0000
vn 0.0032 0.0017 -1.0000
vn 0.0068 0.0018 -1.0000
vn 0.0040 0.0040 -1.0000
vn 0.7261 0.6869 -0.0301
vn 0.4462 0.5413 -0.7127
vn -0.6841 0.7151 -0.1436
vn 0.0037 0.0054 -1.0000
vn -0.0007 -0.0067 -1.0000
vn -0.0061 0.0111 -0.9999
vn 0.0015 -0.0100 -0.9999
vn -0.1280 -0.9901 -0.0579
vn 0.9840 -0.1700 -0.0537
vn 0.9871 -0.1604 -0.0033
vn 0.0008 -0.0001 -1.0000
vn -0.0489 -0.9967 0.0653
vn -0.0080 -0.0013 -1.0000
vn 0.0068 -0.0018 -1.0000
vn 0.0051 -0.0032 -1.0000
vn 0.0050 -0.0030 -1.0000
vn 0.9738 -0.2052 -0.0985
vn 0.2564 0.9665 0.0077
vn 0.3800 0.8295 -0.4092
vn 0.7628 0.5681 -0.3087
vn 0.8093 0.5785 -0.1021
vn 0.9685 0.2041 -0.1429
vn 0.8342 0.0024 -0.5515
vn -0.0000 0.0038 -1.0000
vn -0.9591 -0.2523 -0.1285
vn -0.2646 0.9636 -0.0392
vn -0.1208 0.9361 -0.3305
vn 0.1398 0.9725 0.1861
vn 0.3101 0.9412 -0.1340
vn 0.2415 0.3270 -0.9137
vn 0.0947 0.3943 -0.9141
vn -0.8237 0.0146 -0.5668
vn -0.0039 0.0023 -1.0000
vn -0.0044 0.0037 -1.0000
vn -0.0063 0.0022 -1.0000
vn -0.9667 0.2065 -0.1510
vn -0.2565 -0.9644 -0.0639
vn -0.0063 -0.0022 -1.0000
vn 0.0008 0.0007 -1.0000
vn 0.0021 0.0004 -1.0000
vn 0.3085 -0.9421 -0.1316
vn 0.1560 -0.9753 0.1566
vn 0.9639 0.2603 -0.0559
vn -0.0006 -0.0048 -1.0000
vn -0.0020 0.0153 -0.9999
vn -0.1280 0.9901 0.0579
vn -0.9667 0.2294 -0.1131
vn -0.1174 -0.9519 -0.2830
vn 0.0173 -0.9496 -0.3131
vn -0.2131 -0.7675 -0.6045
vn -0.2080 -0.9772 -0.0435
vn 0.0011 -0.0091 -1.0000
vn -0.0024 -0.0058 -1.0000
vn 0.0027 -0.0061 -1.0000
vn -0.1170 -0.9886 0.0944
vn -0.9888 -0.1491 0.0030
vn -0.1041 0.9852 -0.1365
vn -0.2450 0.9624 0.1171
vn 0.5795 0.0046 -0.8149
vn 0.9798 0.1673 0.1093
vn -0.0018 0.0003 -1.0000
vn -0.9888 0.1491 -0.0030
vn -0.9869 0.1563 -0.0397
vn 0.7827 0.5820 0.2203
vn -0.0000 -0.0000 1.0000
vn -0.3195 -0.8477 -0.4234
vn -0.6077 0.7673 -0.2048
vn 0.1697 0.9278 0.3324
vn -0.0054 -0.0029 -1.0000
vn -0.0056 -0.0035 -1.0000
vn -0.7141 -0.6997 -0.0221
vn 0.6729 -0.7230 -0.1564
vn -0.2535 -0.3241 -0.9114
vn 0.1491 -0.5666 -0.8104
vn -0.6780 -0.7208 -0.1438
vn 0.7261 -0.6869 -0.0301
vn 0.4698 -0.5584 -0.6837
vn 0.2386 -0.3305 -0.9132
vn 0.7628 -0.5681 -0.3087
vn 0.8155 -0.5081 -0.2773
vn 0.9099 -0.3501 0.2225
vn 0.5676 -0.1978 -0.7992
vn 0.9106 -0.2092 -0.3566
vn 0.4111 -0.0944 -0.9067
vn 0.5279 0.1577 -0.8345
vn 0.9100 0.3716 0.1837
vn 0.3401 0.1193 -0.9328
vn 0.4705 -0.0877 -0.8780
vn 0.1128 -0.0127 -0.9935
vn 0.1586 -0.1079 -0.9814
vn 0.1235 -0.1714 -0.9774
vn 0.0522 -0.2261 -0.9727
vn -0.0528 -0.2715 -0.9610
vn -0.0541 -0.1231 -0.9909
vn -0.0374 0.0243 -0.9990
vn -0.5612 -0.0817 -0.8236
vn -0.2969 0.0131 -0.9548
vn -0.8054 -0.5903 -0.0539
vn -0.8080 -0.5354 -0.2459
vn -0.9438 -0.2549 -0.2103
vn -0.6153 -0.4122 -0.6719
vn -0.7294 -0.6690 0.1428
vn 0.0516 0.0614 -0.9968
vn -0.2660 -0.3483 -0.8989
vn -0.0593 -0.3362 -0.9399
vn 0.0056 -0.1146 -0.9934
vn 0.0716 -0.3690 -0.9267
vn 0.2226 -0.2991 -0.9279
vn 0.3479 -0.4101 -0.8431
vn 0.3502 -0.2089 -0.9131
vn 0.1334 -0.0137 -0.9910
vn -0.9782 0.1104 -0.1758
vn 0.1297 0.0256 -0.9912
vn 0.0104 0.0077 -0.9999
vn 0.1883 0.2441 -0.9513
vn 0.3774 0.4511 -0.8088
vn 0.2360 0.3161 -0.9189
vn 0.0655 0.3159 -0.9465
vn 0.0953 0.8410 -0.5326
vn 0.0597 0.6789 -0.7318
vn -0.2724 0.9258 -0.2623
vn -0.2445 0.3347 -0.9100
vn -0.9128 0.3749 0.1620
vn -0.4765 0.1225 -0.8706
vn -0.7682 0.5629 -0.3050
vn -0.7295 0.6838 -0.0150
vn -0.4858 0.5723 -0.6607
vn -0.8451 0.4850 -0.2249
vn -0.4040 0.0114 -0.9147
vn -0.2888 0.0861 -0.9535
vn 0.9465 -0.1612 0.2797
vn 0.9068 -0.3023 -0.2940
vn -0.3975 0.1325 -0.9080
vn -0.1508 0.0763 -0.9856
vn -0.3361 0.4024 -0.8515
vn -0.2574 0.2976 -0.9194
vn -0.1993 0.2467 -0.9484
vn -0.0471 0.3085 -0.9501
vn 0.1461 -0.9569 -0.2510
vn 0.6059 -0.7005 -0.3771
vn 0.8662 -0.4103 0.2853
vn 0.7019 -0.6610 0.2656
vn 0.3851 -0.8029 0.4551
vn 0.1455 -0.9560 -0.2546
vn -0.1209 -0.9372 -0.3271
vn -0.1089 -0.9606 -0.2559
vn -0.3590 -0.8317 0.4234
vn -0.6131 -0.7478 -0.2546
vn -0.6028 -0.7114 -0.3612
vn -0.9457 -0.3216 -0.0478
vn -0.9099 -0.0885 0.4053
vn -0.9098 0.2002 0.3637
vn -0.8264 0.5624 0.0278
vn -0.8287 0.5361 0.1607
vn -0.5846 0.8113 -0.0102
vn -0.6243 0.7364 0.2608
vn -0.3653 0.8380 0.4053
vn -0.2236 0.9691 -0.1037
vn -0.0959 0.9193 0.3816
vn 0.1909 0.9814 -0.0190
vn 0.1873 0.9823 0.0045
vn 0.4384 0.8477 0.2986
vn 0.5662 0.7805 -0.2652
vn -0.1011 -0.0652 -0.9927
vn 0.8340 0.5092 0.2125
vn 0.8603 0.2387 0.4504
vn 0.8950 0.1303 -0.4266
vn -0.6295 -0.3465 0.6954
vn 0.5240 0.4537 0.7209
vn 0.7467 0.1989 0.6348
vn 0.9688 0.2383 -0.0677
vn 0.7623 0.6379 -0.1090
vn 0.4571 0.8839 0.0991
vn 0.1878 0.9798 0.0685
vn -0.1016 0.9799 0.1716
vn -0.3811 0.8706 0.3112
vn -0.6456 0.7622 0.0479
vn -0.8384 0.5450 -0.0084
vn -0.9691 0.2121 -0.1258
vn -0.9892 -0.1032 -0.1039
vn -0.8388 -0.4410 -0.3194
vn -0.5047 -0.6156 0.6053
vn -0.3479 -0.8060 0.4788
vn -0.1123 -0.8707 0.4788
vn 0.1321 -0.8679 0.4788
vn 0.3740 -0.7798 0.5021
vn 0.7245 -0.6825 -0.0966
vn 0.8393 -0.3976 0.3709
vn 0.9845 -0.1743 -0.0176
vn 0.7036 0.1144 0.7014
vn 0.9928 -0.0974 -0.0691
vn 0.8535 -0.5187 -0.0500
vn 0.5328 -0.7819 0.3236
vn 0.1602 -0.7981 -0.5809
vn -0.0712 -0.8750 -0.4788
vn -0.3096 -0.8215 -0.4788
vn -0.5241 -0.7043 -0.4788
vn -0.6962 -0.5127 -0.5024
vn -0.9579 -0.2317 0.1696
vn -0.9892 0.1032 0.1039
vn -0.8509 0.4482 0.2742
vn -0.6120 0.7876 -0.0717
vn -0.3644 0.9173 0.1603
vn 0.0703 0.8695 -0.4890
vn 0.1892 0.9798 0.0645
vn 0.4844 0.8748 0.0084
vn 0.7633 0.6337 -0.1255
vn 0.9547 0.2772 0.1080
vn 0.6888 0.2004 -0.6967
vn -0.2219 0.6389 -0.7366
vn -0.6100 0.3364 -0.7175
vn 0.3966 -0.6064 -0.6892
vn 0.7901 -0.4750 -0.3876
vn 0.7721 -0.5816 0.2562
vn 0.4072 -0.9056 0.1190
vn 0.1782 -0.8882 -0.4234
vn -0.0825 -0.9699 0.2293
vn -0.0784 -0.9639 0.2546
vn -0.5947 -0.7993 -0.0860
vn -0.5596 -0.8193 0.1250
vn -0.8067 -0.5856 0.0795
vn -0.8173 -0.5562 -0.1508
vn -0.8694 -0.2098 -0.4473
vn -0.9535 -0.0858 0.2890
vn -0.9010 0.0873 -0.4251
vn -0.9164 0.3589 -0.1772
vn -0.6307 0.7171 0.2966
vn -0.2545 0.9111 -0.3244
vn 0.1528 0.9800 0.1272
vn 0.1710 0.9845 -0.0390
vn 0.4437 0.7897 -0.4238
vn 0.6104 0.7057 0.3597
vn 0.6867 0.5756 -0.4440
vn 0.8927 0.4010 -0.2054
vn 0.9728 -0.0230 0.2305
vn 0.9649 -0.0974 -0.2438
vn 0.0110 0.0246 0.9996
vn 0.0256 -0.0365 0.9990
vn -0.0014 0.0020 -1.0000
vn -0.2425 0.0572 -0.9685
vn -0.0784 -0.0997 -0.9919
vn -0.2427 -0.0689 -0.9676
vn -0.2250 0.9614 0.1586
vn 0.2189 0.9109 -0.3497
vn 0.0231 0.0034 0.9997
vn -0.9933 0.0914 -0.0710
vn -0.9288 0.3511 -0.1183
vn -0.9838 0.1658 0.0687
vn -0.7504 -0.6583 0.0595
vn -0.9886 -0.1359 0.0642
vn 0.9840 0.1700 0.0537
vn 0.9871 0.1604 0.0033
vn 0.9866 -0.1608 -0.0287
vn 0.2364 -0.9380 0.2536
vn -0.0567 -0.0050 0.9984
vn 0.8639 -0.0910 -0.4954
vn 0.9282 -0.2588 -0.2672
vn 0.9198 -0.3393 -0.1972
vn -0.0000 -0.0001 1.0000
vn -0.0033 0.0227 0.9997
vn 0.0022 0.0331 0.9995
vn -0.3800 -0.8512 -0.3620
vn -0.6390 0.0120 -0.7691
vn -0.0002 -0.0000 1.0000
vn -0.0047 -0.0183 0.9998
vn 0.6763 0.7195 -0.1581
vn -0.9676 -0.2067 -0.1449
vn -0.9598 -0.2803 -0.0143
vn -0.2565 0.9648 -0.0583
vn 0.2565 -0.9655 -0.0451
vn -0.9869 -0.1563 0.0397
vn 0.9567 -0.2873 -0.0475
s 0
usemtl part_2
f 4//1 3//1 2//1
f 3//2 4//2 5//2
f 5//1 59//1 6//1
f 49//3 6//3 7//3
f 9//4 20//4 10//4
f 10//5 20//5 11//5
f 11//6 12//6 13//6
f 13//7 14//7 10//7
f 10//8 11//8 13//8
f 12//9 15//9 35//9
f 15//10 16//10 35//10
f 15//11 12//11 11//11
f 18//12 19//12 17//12
f 17//1 20//1 21//1
f 21//13 42//13 22//13
f 22//14 23//14 18//14
f 20//15 17//15 11//15
f 20//16 24//16 25//16
f 21//17 25//17 147//17
f 147//18 27//18 21//18
f 21//19 27//19 26//19
f 22//1 17//1 21//1
f 25//20 21//20 20//20
f 20//21 9//21 28//21
f 10//22 29//22 30//22
f 9//23 10//23 30//23
f 30//24 31//24 9//24
f 30//25 29//25 33//25
f 33//26 29//26 10//26
f 10//27 34//27 33//27
f 35//28 13//28 12//28
f 35//29 16//29 36//29
f 37//30 14//30 13//30
f 11//31 17//31 40//31
f 18//32 17//32 22//32
f 38//33 23//33 22//33
f 38//34 39//34 23//34
f 18//35 23//35 39//35
f 18//36 39//36 40//36
f 40//37 19//37 18//37
f 11//38 40//38 15//38
f 40//39 39//39 41//39
f 38//40 22//40 42//40
f 44//41 43//41 42//41
f 42//42 26//42 44//42
f 26//43 45//43 44//43
f 44//44 45//44 46//44
f 46//45 45//45 26//45
f 47//46 48//46 26//46
f 27//47 58//47 26//47
f 58//48 27//48 49//48
f 52//49 54//49 53//49
f 53//50 55//50 52//50
f 53//51 54//51 9//51
f 52//52 49//52 9//52
f 9//53 49//53 8//53
f 7//54 8//54 49//54
f 58//55 51//55 50//55
f 55//56 51//56 52//56
f 56//57 57//57 55//57
f 55//58 57//58 50//58
f 51//59 55//59 50//59
f 58//60 49//60 51//60
f 49//61 52//61 51//61
f 9//62 54//62 52//62
f 59//1 7//1 6//1
f 59//63 5//63 4//63
f 60//1 7//1 59//1
f 59//1 67//1 60//1
f 28//64 60//64 24//64
f 25//1 24//1 61//1
f 25//1 61//1 62//1
f 63//1 65//1 64//1
f 65//65 63//65 61//65
f 62//66 61//66 63//66
f 67//67 64//67 65//67
f 65//68 61//68 67//68
f 9//69 8//69 28//69
f 60//70 28//70 8//70
f 8//71 7//71 60//71
f 67//72 66//72 64//72
f 68//73 69//73 66//73
f 69//74 70//74 71//74
f 78//75 77//75 79//75
f 81//76 80//76 82//76
f 26//77 58//77 47//77
f 58//78 90//78 47//78
f 90//79 92//79 91//79
f 92//80 90//80 58//80
f 58//81 50//81 92//81
f 55//82 53//82 56//82
f 9//83 31//83 32//83
f 93//84 32//84 31//84
f 93//85 94//85 32//85
f 32//86 53//86 9//86
f 31//87 30//87 93//87
f 95//88 94//88 93//88
f 33//89 93//89 30//89
f 93//90 33//90 95//90
f 95//91 33//91 34//91
f 10//92 37//92 34//92
f 36//93 37//93 35//93
f 13//94 35//94 37//94
f 37//95 36//95 96//95
f 34//96 37//96 96//96
f 34//97 96//97 97//97
f 95//98 97//98 98//98
f 94//99 98//99 99//99
f 56//100 99//100 100//100
f 57//101 100//101 101//101
f 92//102 101//102 102//102
f 103//103 102//103 104//103
f 89//104 104//104 88//104
f 88//105 46//105 89//105
f 105//106 47//106 90//106
f 90//107 91//107 105//107
f 89//108 105//108 103//108
f 103//109 105//109 91//109
f 92//110 103//110 91//110
f 102//111 103//111 92//111
f 101//112 92//112 50//112
f 101//113 50//113 57//113
f 100//114 57//114 56//114
f 99//115 56//115 53//115
f 99//116 53//116 32//116
f 99//117 32//117 94//117
f 98//118 94//118 95//118
f 97//119 95//119 34//119
f 106//120 97//120 96//120
f 108//121 96//121 36//121
f 36//122 16//122 108//122
f 109//123 108//123 16//123
f 16//124 15//124 109//124
f 15//125 40//125 109//125
f 40//126 41//126 109//126
f 110//127 109//127 41//127
f 41//128 39//128 110//128
f 38//129 110//129 39//129
f 111//130 38//130 42//130
f 46//131 113//131 44//131
f 113//132 46//132 112//132
f 43//133 44//133 113//133
f 113//134 111//134 43//134
f 113//135 114//135 111//135
f 112//136 114//136 113//136
f 26//137 89//137 46//137
f 112//138 46//138 88//138
f 88//139 87//139 115//139
f 115//140 116//140 88//140
f 88//141 116//141 112//141
f 114//142 112//142 116//142
f 111//143 114//143 116//143
f 116//144 117//144 111//144
f 38//145 111//145 117//145
f 110//146 38//146 117//146
f 118//147 110//147 117//147
f 120//148 117//148 116//148
f 116//149 115//149 121//149
f 116//150 121//150 120//150
f 117//151 120//151 119//151
f 117//152 119//152 118//152
f 110//153 118//153 122//153
f 122//154 109//154 110//154
f 109//155 122//155 123//155
f 109//156 123//156 124//156
f 124//157 108//157 109//157
f 107//158 96//158 108//158
f 96//159 107//159 106//159
f 97//160 106//160 125//160
f 126//161 98//161 97//161
f 97//162 125//162 126//162
f 127//163 99//163 98//163
f 98//164 126//164 127//164
f 99//165 127//165 128//165
f 128//166 100//166 99//166
f 100//167 128//167 129//167
f 130//168 101//168 100//168
f 100//169 129//169 130//169
f 101//170 130//170 131//170
f 131//171 102//171 101//171
f 104//172 89//172 103//172
f 104//173 102//173 132//173
f 104//174 132//174 87//174
f 87//175 88//175 104//175
f 108//176 124//176 107//176
f 102//177 131//177 132//177
f 133//178 87//178 132//178
f 86//179 133//179 132//179
f 84//180 132//180 131//180
f 83//181 131//181 130//181
f 82//182 130//182 129//182
f 81//183 129//183 128//183
f 80//184 128//184 127//184
f 78//185 127//185 126//185
f 77//186 126//186 125//186
f 75//187 125//187 106//187
f 74//188 106//188 107//188
f 73//189 107//189 124//189
f 73//190 124//190 123//190
f 72//191 123//191 122//191
f 70//192 122//192 118//192
f 71//193 118//193 119//193
f 134//194 119//194 120//194
f 136//195 120//195 121//195
f 136//196 121//196 115//196
f 137//197 115//197 87//197
f 137//198 87//198 133//198
f 133//199 86//199 137//199
f 115//200 137//200 136//200
f 120//201 136//201 135//201
f 120//202 135//202 134//202
f 119//203 134//203 71//203
f 118//204 71//204 70//204
f 122//205 70//205 72//205
f 123//206 72//206 73//206
f 107//207 73//207 74//207
f 106//208 74//208 75//208
f 125//209 75//209 77//209
f 126//210 77//210 78//210
f 127//211 78//211 80//211
f 128//212 80//212 81//212
f 129//213 81//213 82//213
f 130//214 82//214 83//214
f 131//215 83//215 84//215
f 132//216 84//216 86//216
f 85//217 86//217 84//217
f 79//218 80//218 78//218
f 76//219 77//219 75//219
f 139//220 135//220 136//220
f 140//221 136//221 137//221
f 136//222 140//222 139//222
f 138//223 135//223 139//223
f 138//224 134//224 135//224
f 134//225 138//225 69//225
f 69//226 71//226 134//226
f 68//227 72//227 70//227
f 70//228 69//228 68//228
f 141//229 73//229 72//229
f 72//230 68//230 141//230
f 141//231 74//231 73//231
f 74//232 141//232 142//232
f 142//233 75//233 74//233
f 142//234 76//234 75//234
f 77//235 76//235 79//235
f 143//236 80//236 79//236
f 80//237 143//237 1//237
f 1//238 82//238 80//238
f 1//239 83//239 82//239
f 83//240 1//240 144//240
f 144//241 84//241 83//241
f 144//242 85//242 84//242
f 85//243 140//243 86//243
f 140//244 137//244 86//244
f 145//245 140//245 85//245
f 85//246 144//246 145//246
f 26//247 42//247 21//247
f 147//1 25//1 62//1
f 62//248 148//248 147//248
f 148//249 146//249 147//249
f 63//250 64//250 148//250
f 148//251 64//251 149//251
f 66//252 149//252 64//252
f 149//73 66//73 69//73
f 69//73 138//73 149//73
f 149//253 138//253 139//253
f 62//254 63//254 148//254
f 149//255 145//255 148//255
f 146//256 148//256 145//256
f 146//257 145//257 2//257
f 3//258 5//258 146//258
f 147//1 146//1 5//1
f 6//259 49//259 27//259
f 27//260 147//260 6//260
f 67//261 59//261 4//261
f 4//1 2//1 150//1
f 150//262 2//262 151//262
f 151//263 143//263 79//263
f 4//264 150//264 67//264
f 150//265 151//265 67//265
f 151//266 66//266 67//266
f 66//73 142//73 141//73
f 141//73 68//73 66//73
f 142//267 66//267 151//267
f 151//268 79//268 76//268
f 151//269 76//269 142//269
f 145//270 151//270 2//270
f 146//271 2//271 3//271
f 5//1 6//1 147//1
f 144//73 1//73 145//73
f 151//73 145//73 1//73
f 151//73 1//73 143//73
f 145//272 149//272 140//272
f 139//273 140//273 149//273
f 42//274 43//274 111//274
f 89//275 48//275 47//275
f 47//276 105//276 89//276
f 26//277 48//277 89//277
f 10//278 14//278 37//278
f 67//1 61//1 60//1
f 24//1 60//1 61//1
f 24//279 20//279 28//279
f 17//280 19//280 40//280
