# Blender 4.2.3 LTS
# www.blender.org
mtllib part_9_simplified.mtl
o part_9_simplified
v -0.011984 -0.025578 0.271090
v -0.006237 -0.023296 0.285358
v -0.002902 0.076617 0.287321
v 0.096083 0.078605 0.287380
v 0.100660 -0.024664 0.285039
v 0.109978 0.078730 0.272521
v 0.098473 0.089469 0.270203
v -0.003526 0.093088 0.268590
v 0.101538 0.094414 0.269853
v -0.003364 0.078152 0.290962
v 0.099947 0.077276 0.290132
v -0.003875 -0.021376 0.290375
v -0.016268 -0.026531 0.268639
v 0.113768 0.047744 0.278283
v 0.112253 0.083193 0.268941
v 0.099358 -0.022034 0.290743
v 0.113817 0.008272 0.278229
v 0.112511 -0.026128 0.268519
v -0.002191 0.089891 0.272451
v 0.099787 -0.036206 0.269744
v 0.098639 -0.027865 0.269339
v 0.105342 -0.025942 0.255750
v 0.107901 0.048500 0.261750
v 0.103363 0.087189 0.255750
v 0.107901 0.007500 0.261750
v 0.104259 0.004500 0.261750
v 0.108201 -0.025522 0.271107
v 0.104648 0.051500 0.261750
v -0.001232 -0.036446 0.271989
v -0.017784 0.008261 0.278231
v -0.017798 0.047734 0.278290
v -0.016550 0.082519 0.269111
v -0.007363 0.087189 0.255750
v -0.008648 0.051500 0.261750
v -0.009342 -0.025942 0.255750
v -0.008258 0.004500 0.261750
v -0.013481 0.079560 0.272032
v -0.002320 -0.027982 0.270286
v -0.011732 0.007500 0.261750
v -0.012040 0.048500 0.261750
v 0.093586 -0.029909 0.276507
v -0.006791 -0.034328 0.270855
vn 0.0002 0.0196 -0.9998
vn 0.0117 0.7633 0.6460
vn -0.0172 0.8315 0.5553
vn -0.6581 -0.0014 0.7529
vn -0.6590 -0.0011 0.7522
vn -0.8357 -0.1795 0.5190
vn 0.8293 0.1753 0.5305
vn 0.6519 0.0008 0.7583
vn 0.6547 -0.0002 0.7559
vn 0.8317 -0.1799 0.5253
vn 0.9904 0.0014 -0.1383
vn 0.9888 0.0029 -0.1493
vn -0.0961 -0.0108 -0.9953
vn 0.0130 -0.0786 -0.9968
vn -0.0174 -0.7730 -0.6341
vn 0.6358 0.5642 0.5267
vn -0.0035 0.0062 1.0000
vn 0.5768 -0.6716 0.4650
vn -0.0520 -0.0555 -0.9971
vn 0.1191 -0.9895 -0.0813
vn 0.8308 0.0111 -0.5565
vn 0.8555 -0.0000 -0.5178
vn 0.8358 0.0041 -0.5490
vn 0.8719 0.0211 -0.4892
vn 0.9199 -0.0000 -0.3922
vn 0.8409 0.0147 -0.5411
vn 0.4143 0.9102 -0.0035
vn -0.9803 -0.0713 0.1845
vn -0.9761 0.0081 -0.2174
vn -0.9245 0.0306 0.3801
vn -0.9938 -0.0174 0.1095
vn -0.2411 0.9703 0.0184
vn 0.0144 -0.8287 0.5596
vn -0.0072 -0.7739 0.6333
vn -0.5553 -0.6805 0.4780
vn -0.9908 -0.0001 -0.1353
vn -0.9888 -0.0019 -0.1493
vn -0.8282 0.1706 0.5338
vn -0.5455 0.6952 0.4681
vn 0.0080 -0.0059 1.0000
vn -0.1751 0.0664 0.9823
vn -0.6256 0.7628 -0.1635
vn 0.9938 -0.0174 0.1095
vn 0.9761 0.0081 -0.2174
vn 0.9829 -0.0687 0.1709
vn 0.9201 0.0076 0.3916
vn 0.9146 0.0094 0.4042
vn -0.0155 -0.8441 -0.5360
vn 0.0154 -0.7463 -0.6654
vn 0.5854 -0.6185 -0.5241
vn 0.8208 -0.0162 -0.5710
vn 0.9265 0.0166 -0.3759
vn 0.9315 0.0275 0.3628
vn 0.6741 -0.7331 -0.0902
vn 0.0996 -0.1583 -0.9824
vn -0.8811 0.0218 -0.4725
vn -0.8209 -0.0062 -0.5710
vn -0.8526 0.0001 -0.5226
vn -0.8260 0.0124 -0.5636
vn -0.8320 0.0146 -0.5546
vn -0.9419 -0.0071 -0.3358
vn -0.0919 -0.9912 -0.0948
vn 0.2158 0.9469 -0.2384
vn 0.2429 0.9699 0.0188
vn 0.9531 0.0348 -0.3008
vn 0.0114 0.9557 -0.2942
vn 0.0526 0.8306 -0.5543
vn -0.0179 -0.5080 -0.8612
vn 0.0615 -0.1321 -0.9893
vn -0.7906 -0.1377 -0.5966
vn 0.0059 0.7346 -0.6785
vn -0.5029 0.8573 -0.1100
vn -0.2047 0.9639 -0.1702
vn -0.9126 0.0076 0.4088
vn -0.9058 0.0097 0.4237
vn -0.6665 -0.7375 -0.1091
vn -0.8787 0.0214 -0.4769
vn -0.7302 -0.0169 -0.6830
vn -0.5329 -0.6797 -0.5040
vn -0.0027 0.0225 -0.9997
s 0
usemtl part_9
f 3//1 4//1 2//1
f 10//2 11//2 9//2
f 9//3 8//3 10//3
f 31//4 30//4 10//4
f 12//5 10//5 30//5
f 30//6 13//6 12//6
f 14//7 15//7 11//7
f 11//8 16//8 14//8
f 17//9 14//9 16//9
f 16//10 18//10 17//10
f 14//11 17//11 18//11
f 18//12 15//12 14//12
f 15//13 7//13 9//13
f 8//14 9//14 7//14
f 19//15 8//15 7//15
f 15//16 9//16 11//16
f 11//17 12//17 16//17
f 16//18 20//18 18//18
f 20//19 21//19 18//19
f 18//20 21//20 22//20
f 23//21 24//21 15//21
f 25//22 23//22 15//22
f 15//23 18//23 25//23
f 18//24 22//24 25//24
f 23//25 25//25 22//25
f 22//26 24//26 23//26
f 7//27 15//27 24//27
f 22//28 27//28 26//28
f 22//29 26//29 28//29
f 28//30 6//30 24//30
f 28//31 24//31 22//31
f 21//32 27//32 22//32
f 29//33 20//33 16//33
f 16//34 12//34 29//34
f 29//35 12//35 13//35
f 30//36 31//36 32//36
f 32//37 13//37 30//37
f 10//38 32//38 31//38
f 32//39 10//39 8//39
f 10//40 12//40 11//40
f 13//41 42//41 29//41
f 32//42 8//42 33//42
f 35//43 33//43 34//43
f 34//44 36//44 35//44
f 36//45 1//45 35//45
f 1//46 36//46 34//46
f 34//47 37//47 1//47
f 19//48 7//48 4//48
f 4//49 3//49 19//49
f 3//50 37//50 19//50
f 2//51 37//51 3//51
f 2//52 1//52 37//52
f 33//53 37//53 34//53
f 19//54 37//54 33//54
f 13//55 38//55 42//55
f 39//56 35//56 13//56
f 40//57 39//57 13//57
f 13//58 32//58 40//58
f 32//59 33//59 40//59
f 40//60 33//60 35//60
f 35//61 39//61 40//61
f 38//62 13//62 35//62
f 38//63 1//63 2//63
f 35//64 1//64 38//64
f 8//65 19//65 33//65
f 38//66 2//66 5//66
f 5//67 41//67 38//67
f 20//68 29//68 42//68
f 42//69 38//69 41//69
f 21//70 20//70 41//70
f 42//71 41//71 20//71
f 21//72 41//72 5//72
f 5//73 27//73 21//73
f 28//74 26//74 27//74
f 27//75 6//75 28//75
f 6//76 7//76 24//76
f 27//77 5//77 6//77
f 5//78 4//78 6//78
f 4//79 7//79 6//79
f 2//80 4//80 5//80
