# Blender 4.2.3 LTS
# www.blender.org
mtllib part_10_simplified.mtl
o part_10_simplified
v -0.040500 0.014500 0.177313
v -0.037400 0.041500 0.182636
v -0.040500 0.041500 0.157313
v -0.032500 0.041167 0.154704
v -0.071674 0.040472 0.112067
v -0.058897 0.044191 0.090809
v -0.071595 0.015745 0.114764
v -0.059268 0.012918 0.091210
v -0.092602 0.014686 0.102163
v -0.084345 0.014500 0.078194
v -0.098977 0.040835 0.093810
v -0.085361 0.041155 0.080091
v -0.050655 0.041359 0.181602
v -0.048500 0.014500 0.157313
v -0.032742 0.014499 0.155869
v -0.039097 0.012644 0.191218
vn -0.9886 0.0896 0.1210
vn 0.0279 0.9987 -0.0419
vn 0.8509 0.0596 0.5219
vn 0.8858 -0.0045 0.4641
vn -0.0163 -0.9937 0.1107
vn -0.8975 -0.3168 -0.3067
vn -0.7099 0.0230 -0.7040
vn 0.9454 0.0129 0.3256
vn -0.8744 -0.0593 0.4816
vn -0.8462 -0.1717 0.5045
vn -0.0014 0.9998 0.0220
vn -0.8574 0.0036 -0.5147
vn -0.2432 0.5134 -0.8230
vn 0.0999 -0.9915 -0.0833
vn -0.2759 -0.9560 -0.0998
vn 0.2134 -0.9653 -0.1504
vn -0.0084 -1.0000 0.0034
vn 0.8590 0.3796 -0.3436
vn -0.0026 -0.9996 -0.0278
vn 0.0912 -0.0270 0.9955
vn -0.0121 0.9999 0.0007
vn 0.7888 -0.5064 -0.3485
vn 0.7362 -0.0362 -0.6758
vn 0.7237 -0.0725 -0.6863
vn 0.9842 -0.0012 0.1769
vn 0.9849 -0.0065 0.1729
vn -0.0775 0.2884 0.9544
vn 0.0400 0.9992 -0.0049
vn 0.8905 -0.2638 0.3708
vn 0.0745 0.1847 -0.9800
vn -0.9118 -0.2444 -0.3299
vn 0.0527 0.9969 -0.0590
s 0
usemtl part_10
f 1//1 2//1 3//1
f 3//2 4//2 5//2
f 6//3 5//3 7//3
f 7//4 8//4 6//4
f 7//5 9//5 8//5
f 10//6 9//6 11//6
f 11//7 12//7 10//7
f 9//8 10//8 12//8
f 13//9 11//9 9//9
f 9//10 16//10 13//10
f 5//11 12//11 11//11
f 5//12 6//12 8//12
f 5//13 8//13 9//13
f 14//14 9//14 7//14
f 15//15 16//15 1//15
f 1//16 16//16 9//16
f 9//17 14//17 1//17
f 13//18 1//18 14//18
f 7//19 15//19 14//19
f 3//20 14//20 15//20
f 13//21 3//21 11//21
f 9//22 12//22 5//22
f 5//23 4//23 15//23
f 15//24 7//24 5//24
f 16//25 15//25 4//25
f 4//26 2//26 16//26
f 2//27 13//27 16//27
f 4//28 3//28 2//28
f 14//29 3//29 13//29
f 1//30 13//30 2//30
f 3//31 15//31 1//31
f 5//32 11//32 3//32
