**ABCDEFGHIJKLMNOPQRSTUVWXYZabcdefghijklmnopqrstuvwxyz**************************
**PARASOLID !"#$%&'()*+,-./:;<=>?@[\]^_`{|}~0123456789**************************
**PART1;
FORMAT=text;
GUISE=transmit;
KEY=unicode filename;
FILE=unicode filename;
DATE=unknown;
**PART2;
SCH=SCH_3000167_30000;
USFLD_SIZE=0;
**PART3;
**END_OF_HEADER*****************************************************************
T51 : TRANSMIT FILE created by modeller version 300016717 SCH_1101000_110040 74
 2 1 2 0 2 3 12 2 646 4 5 0 0 0 0 1e3 1e-8 0 0 3 1 0 1 1 6 7 8 9 10 11 12 12 3 7
8 13 14 0 0 0 0 1e3 1e-8 0 2 0 1 0 1 1 15 16 17 18 19 20 21 81 1 13 78 22 3 0 0
 0 0 23 70 14 0 3 0 0 4 2 20 4 24 24 1 T13 15 4 0 3 0 25 0 0 26 0 50 16 50 0 25
 27 0 0 +-.005 .0025 0 -1 0 0 0 0 1 30 17 69 0 20 28 0 0 +-.005 .002 0 0 0 -1 29
 18 58 0 21 29 0 -.005 .002 -.0015 19 19 2 0 3 26 0 30 V16 20 10 0 ?31 0 32 17 0
 0 3 18 21 8 0 33 0 34 18 ?3 17 33 0 35 36 36 21 37 38 0 31 -18 34 9 0 37 21 39
 40 ?3 17 37 0 41 42 43 34 33 38 0 36 +18 39 14 0 44 34 45 46 ?3 29 40 51 0 34 0
 47 -.005 .002 .0015 29 47 52 0 45 40 48 -.02 .002 0 18 45 16 0 49 39 50 47 ?3 2
9 48 53 0 50 47 51 -.0195 .002 .0015 18 50 18 0 52 45 53 48 ?3 29 51 54 0 54 48
 55 .011 .005 0 18 54 34 0 56 53 57 51 ?3 29 55 55 0 57 51 46 .015 .005 0 18 57
 39 0 58 54 0 55 ?3 29 46 56 0 39 55 29 -.0195 .002 -.0015 29 29 57 0 53 46 18 .
011 .0025 0 18 53 25 0 59 50 54 29 ?3 17 59 0 60 59 59 53 61 62 0 61 -15 60 23 0
 59 63 0 17 61 0 64 61 61 53 59 62 0 0 +16 62 24 0 ?61 65 66 67 0 0 3 16 65 28 0
 ?68 69 62 70 0 0 3 16 66 33 0 ?71 62 72 73 0 0 3 31 67 61 0 62 74 75 0 +.011 0
 0 1 0 0 0 1 0 .0025 30 74 60 0 76 77 67 0 +-.01225 .002 .0015 -1 0 0 31 75 62 0
 72 67 78 0 +.015 0 0 1 0 0 0 1 0 .005 16 72 38 0 ?79 66 0 75 0 0 3 30 78 63 0 3
2 75 70 0 +-.01225 .002 -.0015 1 0 0 16 32 13 0 ?43 20 38 78 0 0 3 31 70 64 0 65
 78 73 0 +-.02 0 0 1 0 0 0 1 0 .002 31 73 65 0 66 70 80 0 +.011 0 0 1 0 0 0 1 0
 .005 31 80 66 0 81 73 82 0 +-.0195 0 0 1 0 0 0 1 0 .0025 16 81 22 0 ?83 76 84 8
0 0 0 3 134 82 67 0 69 80 28 0 +85 86 16 69 17 0 ?87 84 65 82 0 0 3 134 28 68 0
 84 82 17 0 +88 89 136 85 2 5 4 3 5 FFT1 90 91 92 135 86 2 45 20 90 -.0195 .002
 .0015 1 -.0212132034355967 .00212132034355967 .000707106781186563 1.06066017177
9834 -.02 .002 0 1 -.0212132034355967 .00212132034355967 -.000707106781186563 1.
060660171779834 -.0195 .002 -.0015 1 127 3 91 3 2 3 128 3 92 0 1.596118591654665
 3.192237183309325 16 84 15 0 ?44 81 69 28 0 0 3 136 88 2 5 4 3 5 FFT1 93 94 95
 135 89 2 45 20 93 -.0195 .002 .0015 1 -.0212132034355967 .00212132034355967 .00
0707106781186563 1.060660171779834 -.02 .002 0 1 -.0212132034355967 .00212132034
355967 -.000707106781186563 1.060660171779834 -.0195 .002 -.0015 1 127 3 94 3 2
 3 128 3 95 0 1.596118591654665 3.192237183309325 17 44 0 96 97 68 39 98 84 0 99
 +15 96 30 0 44 100 0 17 97 0 96 87 44 50 83 81 0 0 -17 68 0 96 44 87 45 49 65 0
 0 +17 98 0 101 52 99 45 44 84 0 68 -17 99 0 101 98 31 39 43 32 0 83 -15 101 12
 0 99 102 0 17 31 0 101 99 103 21 36 20 0 43 +17 43 0 41 37 83 21 99 32 0 0 +17
 83 0 41 43 42 39 97 81 0 0 +15 41 21 0 43 63 60 17 42 0 41 83 37 50 103 76 0 97
 +17 103 0 101 31 52 34 42 76 0 0 -16 76 19 0 ?42 38 81 74 0 0 3 16 38 7 0 ?37 3
2 76 77 0 0 3 31 77 59 0 38 0 74 0 +-.005 0 0 1 0 0 0 1 0 .0025 17 52 0 101 103
 98 50 87 69 0 42 -17 87 0 96 68 97 45 52 69 0 98 +14 63 20 104 ?105 102 41 15 1
06 +0 0 105 102 30 81 1 104 73 107 63 0 0 108 109 110 14 105 26 111 ?100 63 112
 15 113 +0 0 100 63 30 14 102 11 109 ?63 25 101 15 114 +0 0 63 25 30 51 106 46 0
 63 115 114 0 +-.00425 0 0 -1 0 0 .0025 0 1 0 13 30 3 0 0 0 0 0 0 19 25 14 25 5
 116 ?102 0 35 15 16 +0 0 102 0 30 81 1 116 77 107 25 0 0 117 0 118 15 35 6 0 33
 25 0 80 1 107 0 119 8001 0 0 0 0 3 5 0 0 FFFFTFTFFFFFFF2 81 1 117 76 107 100 0
 0 120 116 121 83 3 118 .63921568627451 .666666666666667 .67843137254902 14 100
 29 117 ?122 105 96 15 27 +0 0 122 105 30 81 1 120 75 107 123 0 0 109 117 124 83
 3 121 .63921568627451 .666666666666667 .67843137254902 14 123 41 120 ?0 125 126
 15 127 +0 0 0 125 30 81 1 109 74 107 102 0 0 104 120 128 83 3 124 .639215686274
51 .666666666666667 .67843137254902 83 3 128 .63921568627451 .666666666666667 .6
7843137254902 14 125 36 129 ?123 122 130 15 131 +0 0 123 122 30 15 126 42 0 79 1
23 0 50 127 48 0 123 114 27 0 +.015 .0025 0 1 0 0 0 1 0 50 114 47 0 102 106 127
 0 +-.015 .002 0 0 1 0 0 0 1 52 27 49 0 100 127 16 0 +-.01975 0 0 1 0 0 .00225 .
707106781186547 .707106781186548 0 1 0 17 79 0 126 79 79 57 58 72 0 0 +17 58 0 1
30 58 58 57 79 72 0 79 -15 130 37 0 58 125 132 15 132 40 0 71 125 0 17 71 0 132
 71 71 54 56 66 0 0 +17 56 0 133 56 56 54 71 66 0 71 -15 133 32 0 56 122 64 14 1
22 31 108 ?125 100 133 15 115 +0 0 125 100 30 15 64 35 0 61 122 0 81 1 108 72 10
7 122 0 0 129 104 134 50 115 45 0 122 131 106 0 +.011 .00375 0 -1 0 0 0 -1 0 51
 131 44 0 125 113 115 0 +.013 0 0 -1 0 0 .005 0 1 0 50 113 43 0 105 0 131 0 +-.0
2 .001 0 -1 0 0 0 -1 0 81 1 129 71 107 125 0 0 111 108 135 83 3 134 .63921568627
451 .666666666666667 .67843137254902 81 1 111 70 107 105 0 0 0 129 136 83 3 135
 .63921568627451 .666666666666667 .67843137254902 83 3 136 .63921568627451 .6666
66666666667 .67843137254902 79 15 119 SDL/TYSA_COLOUR15 112 27 0 49 105 0 17 49
 0 112 49 49 45 68 65 0 87 -83 3 110 .63921568627451 .666666666666667 .678431372
54902 17 36 0 35 33 33 34 31 20 0 103 -19 26 1 0 3 0 19 15 S74 20 24 2 0 116 13
 0 0 0 0 0 0 0 0 0 0 0 0 0 0 0 0 0 0 80 1 22 137 138 8017 0 0 0 0 0 0 0 0 TTTTTT
TTTTTTTF3 84 24 23 stepper_am17hd4452-02n_279 13 138 SDL/TYSA_NAME81 1 4 646 22
 2 0 0 0 0 139 70 5 0 2 0 0 4 2 20 4 140 140 1 T13 6 4 0 2 0 141 0 0 142 0 54 7
 404 0 143 144 0 0 +-.0019 -612303176911189e-35 0 -1 612303176911189e-31 0 .0109
 1e-4 0 0 1 31 8 590 0 145 146 0 0 +.006 -.0155 .0155 1 0 0 0 1 0 .001229375 29
 9 487 0 147 148 0 .00765 -.012 .02 19 10 2 0 2 142 0 149 V16 11 10 0 ?150 0 151
 152 0 0 2 18 12 8 0 153 0 154 155 ?2 17 153 0 156 153 153 12 157 158 0 157 -18
 154 11 0 159 12 160 161 ?2 29 155 439 0 12 162 163 -.002 -.0025 -30615158845559
45e-34 29 162 438 0 164 165 155 .02465 -.02115 .0151220864962478 29 163 440 0 16
6 155 167 .00765 .02115 -.0151220864962478 18 166 308 0 168 169 170 163 ?2 29 16
7 441 0 171 163 172 .00765 .02115 .0151220864962478 18 171 316 0 173 174 175 167
 ?2 29 172 442 0 176 167 177 0 -.02115 -.0151220864962478 18 176 294 0 178 179 1
80 172 ?2 29 177 443 0 174 172 181 .00765 .0151220864962478 .02115 18 174 314 0
 182 170 171 177 ?2 29 181 444 0 183 177 184 .006 -.014270625 .0155 18 183 111 0
 185 186 187 181 ?2 29 184 445 0 188 181 189 .0343 -.02115 .0151220864962478 18
 188 193 0 190 191 192 184 ?2 29 189 446 0 193 184 194 .015 .005 0 18 193 20 0 1
95 160 196 189 ?2 29 194 447 0 170 189 197 .00765 .0151220864962478 -.02115 18 1
70 303 0 198 166 174 194 ?2 29 197 448 0 199 194 200 0 .0151220864962478 .02115
 18 199 313 0 201 175 0 197 ?2 29 200 449 0 202 197 203 .00765 -.02115 -.0151220
864962478 18 202 293 0 204 205 206 200 ?2 29 203 450 0 175 200 207 0 .02115 .015
1220864962478 18 175 318 0 208 171 199 203 ?2 29 207 451 0 209 203 210 .02465 -.
02 .012 18 209 169 0 211 212 213 207 ?2 29 210 452 0 214 207 215 .0343 .01512208
64962478 .02115 18 214 207 0 216 217 218 210 ?2 29 215 453 0 219 210 220 .00765
 .02 -.012 18 219 228 0 221 218 222 215 ?2 29 220 454 0 223 215 224 .006 .016729
375 .0155 18 223 49 0 225 226 227 220 ?2 29 224 455 0 186 220 228 .004770625 -.0
14270625 .0155 18 186 106 0 229 230 183 224 ?2 29 228 456 0 187 224 231 .0067097
79987185 -.0155 .0155 18 187 115 0 232 183 233 228 ?2 29 231 457 0 234 228 235 0
 -1347066989204614e-33 .011 18 234 271 0 236 237 238 231 ?2 29 235 458 0 239 231
 240 .004770625 -.014270625 -.0155 18 239 137 0 241 242 243 235 ?2 29 240 459 0
 212 235 244 .02465 -.012 .02 18 212 181 0 245 246 209 240 ?2 29 244 460 0 247 2
40 248 .00765 .012 -.02 18 247 235 0 249 222 250 244 ?2 29 248 461 0 196 244 251
 270625e-9 .016729375 .0155 18 196 27 0 252 193 253 248 ?2 29 251 462 0 254 248
 255 .02465 -.0151220864962478 -.02115 18 254 158 0 256 257 258 251 ?2 29 255 46
3 0 238 251 259 -.002 .0109 0 18 238 276 0 260 234 261 255 ?2 29 259 464 0 262 2
55 263 .02465 .02115 .0151220864962478 18 262 151 0 264 265 266 259 ?2 29 263 46
5 0 267 259 268 0 -.014 .0155 18 267 92 0 269 270 271 263 ?2 29 268 466 0 237 26
3 272 -.0019 .011 0 18 237 268 0 273 274 234 268 ?2 29 272 467 0 275 268 276 .02
465 .02 .012 18 275 177 0 277 278 246 272 ?2 29 276 468 0 243 272 279 .006 -.014
270625 -.0155 18 243 142 0 280 239 265 276 ?2 29 279 469 0 191 276 281 .0343 -.0
2115 -.0151220864962478 18 191 186 0 282 213 188 279 ?2 29 281 470 0 283 279 284
 .00765 -.02 .012 18 283 250 0 285 286 147 281 ?2 29 284 471 0 287 281 288 27062
5e-9 .016729375 -.0155 18 287 58 0 289 227 290 284 ?2 29 288 472 0 160 284 291 .
011 .005 0 18 160 15 0 292 154 193 288 ?2 29 291 473 0 286 288 293 .00765 -.02 -
.012 18 286 245 0 294 250 283 291 ?2 29 293 474 0 295 291 296 .02465 .0151220864
962478 .02115 18 295 152 0 297 298 299 293 ?2 29 296 475 0 266 293 300 .02465 .0
2115 -.0151220864962478 18 266 154 0 301 262 257 296 ?2 29 300 476 0 302 296 303
 .0045 .017 -.0155 18 302 70 0 304 305 306 300 ?2 29 303 477 0 242 300 161 .0045
 -.014 -.0155 18 242 132 0 307 308 239 303 ?2 29 161 478 0 154 303 309 .011 .002
5 0 29 309 479 0 271 161 310 .0045 -.014270625 .0155 18 271 96 0 311 267 230 309
 ?2 29 310 480 0 312 309 313 .0045 .016729375 .0155 18 312 34 0 314 253 315 310
 ?2 29 313 481 0 298 310 316 .02465 -.0151220864962478 .02115 18 298 164 0 317 1
64 295 313 ?2 29 316 482 0 318 313 319 0 -.0151220864962478 .02115 18 318 288 0
 320 321 179 316 ?2 29 319 483 0 250 316 322 .00765 -.012 -.02 18 250 240 0 323
 247 286 319 ?2 29 322 484 0 206 319 324 0 .0151220864962478 -.02115 18 206 304
 0 325 202 169 322 ?2 29 324 485 0 278 322 148 .02465 .02 -.012 18 278 175 0 326
 327 275 324 ?2 29 148 486 0 328 324 9 .02465 -.012 -.02 18 328 171 0 329 299 32
7 148 ?2 17 329 0 330 331 332 328 333 334 0 335 -18 299 168 0 332 295 328 336 ?2
 18 327 173 0 331 328 278 337 ?2 17 331 0 330 326 329 327 335 338 0 339 -29 337
 411 0 327 336 340 .02465 .012 -.02 29 336 410 0 299 341 337 .02465 -.02 -.012 2
9 340 412 0 179 337 342 0 -.02115 .0151220864962478 18 179 283 0 343 318 176 340
 ?2 29 342 413 0 169 340 344 0 .02115 -.0151220864962478 18 169 306 0 345 206 16
6 342 ?2 29 344 414 0 213 342 346 .0343 -.0151220864962478 -.02115 18 213 188 0
 347 209 191 344 ?2 29 346 415 0 180 344 348 0 -.0151220864962478 -.02115 18 180
 296 0 349 176 205 346 ?2 29 348 416 0 321 346 350 .00765 -.0151220864962478 .02
115 18 321 286 0 351 261 318 348 ?2 29 350 417 0 308 348 352 .0045 -.014270625 -
.0155 18 308 127 0 353 354 242 350 ?2 29 352 418 0 217 350 355 .0343 .0151220864
962478 -.02115 18 217 200 0 356 357 214 352 ?2 29 355 419 0 230 352 358 .0045 -.
014 .0155 18 230 101 0 359 271 186 355 ?2 29 358 420 0 270 355 360 270625e-9 -.0
14270625 .0155 18 270 89 0 361 362 267 358 ?2 29 360 421 0 233 358 363 270625e-9
 -.014270625 -.0155 18 233 120 0 364 187 354 360 ?2 29 363 422 0 218 360 365 .03
43 .02115 .0151220864962478 18 218 209 0 366 214 219 363 ?2 29 365 423 0 205 363
 367 .00765 -.0151220864962478 -.02115 18 205 298 0 368 180 202 365 ?2 29 367 42
4 0 226 365 369 .004770625 .016729375 .0155 18 226 44 0 370 315 223 367 ?2 29 36
9 425 0 222 367 371 .00765 .02 .012 18 222 230 0 372 219 247 369 ?2 29 371 426 0
 261 369 373 .00765 -.02115 .0151220864962478 18 261 284 0 374 238 321 371 ?2 29
 373 427 0 257 371 375 .02465 .0151220864962478 -.02115 18 257 156 0 376 266 254
 373 ?2 29 375 428 0 315 373 377 .0045 .017 .0155 18 315 39 0 378 312 226 375 ?2
 29 377 429 0 305 375 379 .0045 .016729375 -.0155 18 305 65 0 380 290 302 377 ?2
 29 379 430 0 381 377 382 .006 .016729375 -.0155 18 381 80 0 383 306 362 379 ?2
 29 382 431 0 258 379 384 .02465 -.02115 -.0151220864962478 18 258 160 0 385 254
 164 382 ?2 29 384 432 0 246 382 386 .02465 .012 .02 18 246 179 0 387 275 212 38
4 ?2 29 386 433 0 192 384 388 .0343 -.0151220864962478 .02115 18 192 195 0 389 1
88 357 386 ?2 29 388 434 0 274 386 390 .00765 .012 .02 18 274 260 0 391 147 237
 388 ?2 29 390 435 0 253 388 392 0 .017 .0155 18 253 30 0 393 196 312 390 ?2 29
 392 436 0 227 390 165 .006709779987185 .0155 .0155 18 227 53 0 394 223 287 392
 ?2 29 165 437 0 290 392 162 0 .017 -.0155 18 290 61 0 395 287 305 165 ?2 17 395
 0 396 395 395 290 397 398 0 397 -15 396 59 0 395 399 0 17 397 0 400 397 397 290
 395 398 0 0 +16 398 60 0 ?397 401 402 403 0 0 2 16 401 29 0 ?404 405 398 406 0
 0 2 16 402 91 0 ?407 398 408 409 0 0 2 31 403 527 0 398 410 411 0 +0 .0155 -.01
55 1 0 0 0 1 0 .0015 31 410 526 0 412 413 403 0 +0 0 0 1 0 0 0 0 -1 .026 31 411
 528 0 414 403 415 0 +.02465 0 0 1 0 0 0 0 1 .026 16 414 159 0 ?416 417 418 411
 0 0 2 30 415 529 0 419 411 420 0 +.003825 -.0151220864962478 .02115 -1 0 0 16 4
19 287 0 ?421 422 423 415 0 0 2 30 420 530 0 424 415 425 0 +.003825 -.02115 .015
1220864962478 1 0 0 16 424 282 0 ?426 427 422 420 0 0 2 31 425 531 0 428 420 429
 0 +.0343 0 0 -1 0 0 0 0 1 .026 16 428 194 0 ?430 431 432 425 0 0 2 30 429 532 0
 433 425 434 0 +.0343 0 -.02115 0 -1 0 16 433 216 0 ?435 436 437 429 0 0 2 30 43
4 533 0 418 429 438 0 +.029475 -.0151220864962478 -.02115 1 0 0 16 418 187 0 ?43
9 414 440 434 0 0 2 30 438 534 0 441 434 442 0 +.02465 0 .02 0 1 0 16 441 180 0
 ?443 444 445 438 0 0 2 30 442 535 0 446 438 447 0 +.003825 .0151220864962478 -.
02115 -1 0 0 16 446 302 0 ?448 449 412 442 0 0 2 31 447 536 0 450 442 451 0 +.01
5 0 0 1 0 0 0 1 0 .005 16 450 19 0 ?452 151 453 447 0 0 2 30 451 537 0 445 447 4
54 0 +.01615 .012 .02 -1 612303176911189e-31 -3749151804555345e-48 16 445 259 0
 ?455 441 456 451 0 0 2 31 454 538 0 456 451 457 0 +.02465 .012 .012 -1 0 0 0 1
 -612303176911189e-31 .008 16 456 178 0 ?277 445 458 454 0 0 2 31 457 539 0 459
 454 460 0 +0 0 0 1 0 0 0 0 -1 .026 16 459 319 0 ?201 461 462 457 0 0 2 30 460 5
40 0 463 457 464 0 +.0343 .02115 0 0 0 -1 16 463 220 0 ?465 466 467 460 0 0 2 30
 464 541 0 468 460 469 0 +.003825 -.02115 -.0151220864962478 -1 0 0 16 468 292 0
 ?470 423 471 464 0 0 2 30 469 542 0 472 464 473 0 +0 0 -.02115 0 1 0 16 472 323
 0 ?474 462 475 469 0 0 2 30 473 543 0 476 469 477 0 +.02465 .02115 0 0 0 -1 16
 476 153 0 ?478 479 417 473 0 0 2 30 477 544 0 480 473 481 0 +.01615 -.02 .012 -
1 749830360911069e-47 612303176911189e-31 16 480 249 0 ?482 483 484 477 0 0 2 31
 481 545 0 485 477 409 0 +270625e-9 -.0155 -.0155 1 0 0 0 1 0 .001229375 16 485
 119 0 ?486 145 487 481 0 0 2 31 409 546 0 402 481 488 0 +0 -.0155 .0155 1 0 0 0
 1 0 .0015 31 488 547 0 489 409 490 0 +.006 .0155 .0155 1 0 0 0 1 0 .001229375 1
6 489 48 0 ?491 492 493 488 0 0 2 31 490 548 0 494 488 495 0 +.02465 .012 -.012
 -1 0 0 0 0 -1 .008 16 494 174 0 ?339 496 497 490 0 0 2 31 495 549 0 498 490 499
 0 +.004770625 -.0155 .0155 1 0 0 0 1 0 .001229375 16 498 105 0 ?500 501 145 495
 0 0 2 31 499 550 0 427 495 502 0 +-.002 1155557966632342e-50 0 -1 0 0 0 1 0 .01
09 16 427 275 0 ?503 158 424 499 0 0 2 30 502 551 0 504 499 505 0 +0 0 .02115 0
 -1 0 16 504 332 0 ?506 507 508 502 0 0 2 31 505 552 0 509 502 510 0 +.00765 -.0
12 -.012 -1 0 0 0 -1 1836909530733565e-31 .008 16 509 246 0 ?294 511 512 505 0 0
 2 30 510 553 0 513 505 514 0 +.029475 .0151220864962478 .02115 1 0 0 16 513 206
 0 ?515 516 517 510 0 0 2 31 514 554 0 518 510 519 0 +.0045 .0155 .0155 1 0 0 0
 1 0 .0015 16 518 38 0 ?520 521 492 514 0 0 2 30 519 555 0 496 514 522 0 +.01615
 .02 -.012 -1 0 -612303176911189e-31 16 496 227 0 ?523 467 494 519 0 0 2 31 522
 556 0 423 519 524 0 +0 0 0 1 0 0 0 0 -1 .026 16 423 289 0 ?343 419 468 522 0 0
 2 31 524 557 0 151 522 525 0 +.011 0 0 1 0 0 0 1 0 .005 16 151 14 0 ?526 11 450
 524 0 0 2 30 525 558 0 527 524 528 0 +.01615 -.012 -.02 -1 -612303176911189e-31
 1124745541366602e-47 16 527 239 0 ?529 338 334 525 0 0 2 30 528 559 0 508 525 5
30 0 +.00765 0 .02115 0 1 0 16 508 327 0 ?531 504 405 528 0 0 2 31 530 560 0 471
 528 532 0 +0 0 0 1 0 0 0 0 -1 .026 16 471 295 0 ?533 468 534 530 0 0 2 31 532 5
61 0 408 530 535 0 +0 -.0155 -.0155 1 0 0 0 1 0 .0015 16 408 122 0 ?536 402 537
 532 0 0 2 30 535 562 0 511 532 538 0 +.00765 0 -.02 0 -1 0 16 511 241 0 ?323 47
5 509 535 0 0 2 30 538 563 0 437 535 539 0 +.02465 0 -.02115 0 1 0 16 437 157 0
 ?376 433 540 538 0 0 2 30 539 564 0 338 538 541 0 +.02465 0 -.02 0 -1 0 16 338
 172 0 ?335 497 527 539 0 0 2 30 541 565 0 542 539 543 0 +.00765 0 .02 0 1 0 16
 542 261 0 ?391 544 545 541 0 0 2 31 543 566 0 546 541 547 0 +.02465 0 0 1 0 0 0
 0 1 .026 16 546 150 0 ?548 549 550 543 0 0 2 31 547 567 0 479 543 551 0 +.006 -
.0155 -.0155 1 0 0 0 1 0 .001229375 16 479 141 0 ?552 553 476 547 0 0 2 31 551 5
68 0 554 547 555 0 +.02465 0 0 1 0 0 0 0 1 .026 16 554 155 0 ?301 556 557 551 0
 0 2 31 555 569 0 484 551 558 0 +.02465 -.012 .012 -1 0 0 0 1224606353822376e-31
 1 .008 16 484 182 0 ?559 480 444 555 0 0 2 31 558 570 0 560 555 561 0 +270625e-
9 -.0155 .0155 1 0 0 0 1 0 .001229375 16 560 88 0 ?562 563 564 558 0 0 2 31 561
 571 0 563 558 565 0 +.006 .0155 -.0155 1 0 0 0 1 0 .001229375 16 563 79 0 ?566
 567 560 561 0 0 2 30 565 572 0 557 561 568 0 +.029475 .02115 -.0151220864962478
 1 0 0 16 557 201 0 ?569 554 516 565 0 0 2 30 568 573 0 549 565 152 0 +.029475 .
02115 .0151220864962478 -1 0 0 16 549 210 0 ?570 517 546 568 0 0 2 31 152 574 0
 11 568 571 0 +.011 0 0 1 0 0 0 1 0 .0025 30 571 575 0 572 152 573 0 +.003825 .0
2115 -.0151220864962478 1 0 0 16 572 307 0 ?574 412 575 571 0 0 2 30 573 576 0 4
67 571 576 0 +.02465 .02 0 0 0 -1 16 467 176 0 ?577 463 496 573 0 0 2 30 576 577
 0 444 573 578 0 +.01615 -.012 .02 -1 749830360911069e-47 612303176911189e-31 16
 444 254 0 ?579 484 441 576 0 0 2 30 578 578 0 432 576 580 0 +.029475 -.01512208
64962478 .02115 -1 0 0 16 432 196 0 ?581 428 582 578 0 0 2 30 580 579 0 458 578
 583 0 +.01615 .02 .012 -1 612303176911189e-31 -3749151804555345e-48 16 458 231
 0 ?584 456 585 580 0 0 2 30 583 580 0 550 580 586 0 +.02465 0 .02115 0 -1 0 16
 550 165 0 ?317 546 436 583 0 0 2 30 586 581 0 507 583 587 0 +.00765 -.02115 0 0
 0 -1 16 507 328 0 ?588 589 504 586 0 0 2 30 587 582 0 590 586 591 0 +.01615 -.0
2 -.012 -1 -612303176911189e-31 1124745541366602e-47 16 590 244 0 ?592 334 483 5
87 0 0 2 30 591 583 0 534 587 406 0 +.003825 -.0151220864962478 -.02115 1 0 0 16
 534 297 0 ?593 471 449 591 0 0 2 31 406 584 0 401 591 594 0 +0 .0155 .0155 1 0
 0 0 1 0 .0015 31 594 585 0 334 406 595 0 +.02465 -.012 -.012 -1 0 0 0 -1 183690
9530733565e-31 .008 16 334 170 0 ?333 527 590 594 0 0 2 30 595 586 0 556 594 596
 0 +.029475 .0151220864962478 -.02115 -1 0 0 16 556 199 0 ?597 582 554 595 0 0 2
 31 596 587 0 598 595 599 0 +.0045 .0155 -.0155 1 0 0 0 1 0 .001229375 16 598 64
 0 ?600 493 601 596 0 0 2 31 599 588 0 158 596 146 0 +-.002 0 0 1 0 0 0 1 0 .002
5 16 158 7 0 ?157 585 427 599 0 0 2 30 146 589 0 405 599 8 0 +0 -.02115 0 0 0 -1
 16 405 335 0 ?602 508 401 146 0 0 2 17 602 0 603 604 605 176 606 405 0 0 +15 60
3 334 0 604 607 0 17 604 0 603 608 602 202 470 468 0 588 -17 605 0 603 602 608 1
79 426 424 0 606 -17 606 0 609 320 178 179 602 405 0 0 -15 609 342 0 208 610 0 1
7 320 0 609 611 606 318 343 423 0 421 -17 178 0 609 606 612 176 533 471 0 470 -1
7 612 0 609 178 325 180 474 472 0 0 -17 533 0 613 593 470 180 178 471 0 612 +17
 470 0 613 533 204 176 604 468 0 602 +15 613 291 0 470 614 0 17 204 0 613 470 59
3 202 368 449 0 604 +17 593 0 613 204 533 205 349 534 0 615 +17 368 0 616 617 58
8 205 204 449 0 593 -16 449 299 0 ?204 534 446 618 0 0 2 31 618 513 0 449 619 62
0 0 +.00765 0 0 -1 0 0 0 0 -1 .026 30 619 512 0 466 621 618 0 +.02465 -.02115 0
 0 0 -1 30 620 514 0 622 618 623 0 +.00765 .02115 0 0 0 -1 16 622 329 0 ?624 625
 0 620 0 0 2 31 623 515 0 517 620 626 0 +.0343 0 0 -1 0 0 0 0 1 .026 16 517 208
 0 ?627 513 549 623 0 0 2 31 626 516 0 628 623 629 0 +.00765 0 0 -1 0 0 0 0 -1 .
026 16 628 315 0 ?630 631 461 626 0 0 2 30 629 517 0 497 626 632 0 +.01615 .012
 -.02 -1 0 -612303176911189e-31 16 497 234 0 ?633 494 338 629 0 0 2 31 632 518 0
 516 629 634 0 +.0343 0 0 -1 0 0 0 0 1 .026 16 516 203 0 ?356 557 513 632 0 0 2
 31 634 519 0 440 632 635 0 +.0343 0 0 -1 0 0 0 0 1 .026 16 440 189 0 ?282 418 4
31 634 0 0 2 30 635 520 0 483 634 636 0 +.02465 -.02 0 0 0 1 16 483 167 0 ?637 5
90 480 635 0 0 2 31 636 521 0 475 635 638 0 +.00765 .012 -.012 -1 0 0 0 0 -1 .00
8 16 475 236 0 ?249 472 511 636 0 0 2 31 638 522 0 453 636 639 0 +270625e-9 .015
5 .0155 1 0 0 0 1 0 .001229375 16 453 26 0 ?640 450 521 638 0 0 2 31 639 523 0 5
44 638 641 0 +.00765 -.012 .012 -1 0 0 0 1224606353822376e-31 1 .008 16 544 256
 0 ?642 512 542 639 0 0 2 31 641 524 0 567 639 413 0 +.004770625 .0155 -.0155 1
 0 0 0 1 0 .001229375 16 567 74 0 ?643 601 563 641 0 0 2 30 413 525 0 461 641 41
0 0 +.003825 .02115 .0151220864962478 -1 0 0 16 461 317 0 ?644 628 459 413 0 0 2
 17 644 0 645 201 630 175 173 461 0 646 +15 645 311 0 647 648 0 17 201 0 645 647
 644 199 208 459 0 649 +17 630 0 645 644 647 171 182 628 0 650 +17 173 0 651 624
 646 171 644 461 0 630 -17 646 0 651 173 345 175 652 625 0 0 -15 651 345 0 173 6
53 0 17 345 0 651 646 624 169 574 572 0 654 -17 652 0 609 325 208 169 646 625 0
 0 +16 625 343 0 ?652 537 622 655 0 0 2 16 537 270 0 ?656 408 625 657 0 0 2 30 6
55 502 0 625 658 659 0 +0 .02115 0 0 0 -1 31 658 501 0 601 660 655 0 +.0045 .015
5 -.0155 1 0 0 0 1 0 .0015 31 659 503 0 521 655 661 0 +.0045 .0155 .0155 1 0 0 0
 1 0 .001229375 16 521 33 0 ?662 453 518 659 0 0 2 30 661 504 0 589 659 663 0 +.
00765 .02 0 0 0 -1 16 589 229 0 ?221 545 507 661 0 0 2 30 663 505 0 631 661 664
 0 +.003825 .0151220864962478 .02115 1 0 0 16 631 312 0 ?647 575 628 663 0 0 2 3
0 664 506 0 540 663 665 0 +.0343 -.02115 0 0 0 -1 16 540 219 0 ?666 437 466 664
 0 0 2 31 665 507 0 493 664 667 0 +270625e-9 .0155 -.0155 1 0 0 0 1 0 .001229375
 16 493 57 0 ?668 489 598 665 0 0 2 30 667 508 0 436 665 669 0 +.0343 0 .02115 0
 1 0 16 436 213 0 ?670 550 433 667 0 0 2 31 669 509 0 585 667 671 0 +-.0019 -612
303176911189e-35 0 1 0 0 0 0 -1 .011 16 585 267 0 ?672 458 158 669 0 0 2 31 671
 510 0 553 669 621 0 +.004770625 -.0155 -.0155 1 0 0 0 1 0 .001229375 16 553 136
 0 ?673 674 479 671 0 0 2 31 621 511 0 501 671 619 0 +.0045 -.0155 .0155 1 0 0 0
 1 0 .0015 16 501 100 0 ?675 564 498 621 0 0 2 17 675 0 676 675 675 230 359 501
 0 0 +16 564 95 0 ?677 560 501 678 0 0 2 17 677 0 679 677 677 271 311 564 0 0 +3
1 678 495 0 564 657 680 0 +.0045 -.0155 .0155 1 0 0 0 1 0 .001229375 31 657 494
 0 537 681 678 0 +0 0 0 1 0 0 0 0 -1 .011 31 680 496 0 545 678 682 0 +.00765 .01
2 .012 -1 0 0 0 1 -612303176911189e-31 .008 16 545 264 0 ?683 542 589 680 0 0 2
 30 682 497 0 462 680 684 0 +.00765 0 -.02115 0 -1 0 16 462 322 0 ?615 459 472 6
82 0 0 2 31 684 498 0 487 682 685 0 +.0045 -.0155 -.0155 1 0 0 0 1 0 .001229375
 16 487 126 0 ?686 485 674 684 0 0 2 31 685 499 0 422 684 660 0 +.00765 0 0 -1 0
 0 0 0 -1 .026 16 422 285 0 ?687 424 419 685 0 0 2 31 660 500 0 575 685 658 0 +.
00765 0 0 -1 0 0 0 0 -1 .026 16 575 309 0 ?198 572 631 660 0 0 2 17 198 0 688 44
8 574 170 168 575 0 689 +15 688 301 0 448 690 0 17 448 0 688 654 198 206 689 446
 0 474 +17 574 0 688 198 654 166 345 572 0 624 +17 168 0 616 650 617 166 198 575
 0 574 -17 689 0 691 615 474 170 448 446 0 617 -15 691 321 0 689 692 0 17 615 0
 691 349 689 205 617 462 0 0 +17 474 0 691 689 349 206 612 472 0 0 +17 617 0 616
 168 368 170 615 462 0 0 -15 616 326 0 182 693 0 17 182 0 616 694 650 174 630 62
8 0 647 -14 693 324 695 ?696 692 697 6 698 -0 0 696 692 149 81 1 695 595 107 693
 0 0 699 700 701 14 696 330 702 ?607 693 703 6 704 +0 0 607 693 149 14 692 320 7
05 ?693 648 691 6 706 -0 0 693 648 149 15 697 325 0 249 693 616 50 698 351 0 693
 707 708 0 +.00765 0 0 -1 0 0 0 0 1 13 149 3 0 0 0 0 0 0 10 141 14 141 5 0 ?709
 0 156 6 710 -0 0 709 0 149 14 709 12 0 ?711 141 712 6 713 -0 0 711 141 149 15 1
56 6 0 153 141 714 51 710 370 0 141 715 716 0 +-.00425 0 0 -1 0 0 .0025 0 1 0 51
 715 369 0 717 718 710 0 +.00615 .012 -.012 -1 0 -612303176911189e-31 .008 61230
3176911189e-31 0 -1 50 716 371 0 719 710 720 0 +.029475 -.02115 0 0 1 0 0 0 1 14
 719 221 721 ?722 723 724 6 716 -0 0 722 723 149 51 720 372 0 725 716 726 0 +.00
23853125 .0155 -.0155 -1 0 0 .001229375 0 1 0 14 725 62 727 ?728 399 729 6 720 -
0 0 728 399 149 52 726 373 0 730 720 731 0 +.0063548899935925 .0155 .0155 -1 0 0
 .0006146875 .866025403784439 .5 0 1 0 14 730 51 732 ?399 733 734 6 726 -0 0 399
 733 149 51 731 374 0 648 726 735 0 +.0035 0 0 -1 0 0 .026 0 0 -1 14 648 310 736
 ?692 690 645 6 731 +0 0 692 690 149 51 735 375 0 737 731 738 0 +.0023853125 -.0
155 .0155 -1 0 0 .001229375 0 1 0 14 737 93 739 ?740 741 679 6 735 -0 0 740 741
 149 51 738 376 0 742 735 743 0 +.0023853125 .0155 .0155 -1 0 0 .001229375 0 1 0
 14 742 31 744 ?745 746 747 6 738 -0 0 745 746 149 50 743 377 0 728 738 748 0 +.
0045 .0168646875 -.0155 -1 0 0 0 -1 0 14 728 67 749 ?750 725 751 6 743 -0 0 750
 725 149 51 748 378 0 752 743 753 0 +-5e-4 0 0 -1 0 0 .011 0 0 -1 14 752 265 754
 ?143 755 756 6 748 +0 0 143 755 149 50 753 379 0 722 748 757 0 +.029475 .02115
 0 0 -1 0 0 0 -1 14 722 223 758 ?759 719 760 6 753 -0 0 759 719 149 51 757 380 0
 761 753 762 0 +.0298 0 0 1 0 0 .026 0 0 1 14 761 183 763 ?764 765 766 6 757 +0
 0 764 765 149 50 762 381 0 740 757 767 0 +.0045 -.0141353125 .0155 -1 0 0 0 -1
 0 14 740 98 768 ?769 737 676 6 762 -0 0 769 737 149 50 767 382 0 770 762 771 0
 +.029475 0 .02115 0 0 1 1 0 0 14 770 211 772 ?773 774 775 6 767 +0 0 773 774 14
9 50 771 383 0 723 767 706 0 +.0343 0 0 -1 0 0 0 0 1 14 723 217 776 ?719 773 777
 6 771 -0 0 719 773 149 50 706 384 0 692 771 713 0 +.003825 0 -.02115 0 0 1 1 0
 0 50 713 385 0 709 706 704 0 +.011 .00375 0 -1 0 0 0 -1 0 50 704 386 0 696 713
 778 0 +.003825 0 .02115 0 0 1 1 0 0 50 778 387 0 607 704 779 0 +.003825 -.02115
 0 0 1 0 0 0 1 14 607 333 780 ?610 696 603 6 778 -0 0 610 696 149 51 779 388 0 7
81 778 782 0 +.0053853125 .0155 -.0155 -1 0 0 .001229375 0 1 0 14 781 77 783 ?78
4 750 785 6 779 -0 0 784 750 149 50 782 389 0 653 779 786 0 +.003825 .02115 0 0
 -1 0 0 0 -1 14 653 344 787 ?0 610 651 6 782 -0 0 0 610 149 51 786 390 0 764 782
 788 0 +.0298 0 0 1 0 0 .026 0 0 1 14 764 190 789 ?790 761 791 6 786 +0 0 790 76
1 149 51 788 391 0 792 786 793 0 +.00615 -.012 -.012 -1 -612303176911189e-31 112
4745541366602e-47 .008 612303176911189e-31 -1 1836909530733565e-31 14 792 242 79
4 ?795 796 797 6 788 +0 0 795 796 149 50 793 392 0 765 788 798 0 +.02465 0 0 1 0
 0 0 0 -1 14 765 148 799 ?761 800 801 6 793 -0 0 761 800 149 52 798 393 0 769 79
3 802 0 +.0046353125 -.0155 .0155 -1 0 0 .0013646875 .707106781186548 .707106781
186548 0 1 0 14 769 103 803 ?804 740 805 6 798 -0 0 804 740 149 50 802 394 0 806
 798 807 0 +-.002 0 0 -1 0 0 0 0 1 14 806 277 808 ?809 143 810 6 802 +0 0 809 14
3 149 51 807 395 0 755 802 811 0 +.00615 .012 .012 -1 612303176911189e-31 -37491
51804555345e-48 .008 612303176911189e-31 1 -612303176911189e-31 14 755 262 812 ?
752 813 814 6 807 +0 0 752 813 149 50 811 396 0 795 807 815 0 +.01615 -.02 0 0 1
 0 0 0 1 14 795 247 816 ?817 792 818 6 811 -0 0 817 792 149 51 815 397 0 804 811
 819 0 +.0053853125 -.0155 .0155 -1 0 0 .001229375 0 1 0 14 804 108 820 ?821 769
 822 6 815 -0 0 821 769 149 50 819 398 0 773 815 823 0 +.029475 0 -.02115 0 0 1
 1 0 0 14 773 214 824 ?723 770 825 6 819 -0 0 723 770 149 51 823 399 0 790 819 8
26 0 +.0298 0 0 1 0 0 .026 0 0 1 14 790 197 827 ?774 764 828 6 823 +0 0 774 764
 149 51 826 400 0 817 823 829 0 +.00615 -.012 .012 -1 749830360911069e-47 612303
176911189e-31 .008 612303176911189e-31 1224606353822376e-31 1 14 817 252 830 ?81
3 795 831 6 826 +0 0 813 795 149 51 829 401 0 614 826 832 0 +.0035 0 0 -1 0 0 .0
26 0 0 -1 14 614 290 833 ?690 809 613 6 829 +0 0 690 809 149 51 832 402 0 834 82
9 144 0 +.0053853125 -.0155 -.0155 -1 0 0 .001229375 0 1 0 14 834 139 835 ?800 8
36 837 6 832 -0 0 800 836 149 51 144 403 0 809 832 7 0 +.0035 0 0 -1 0 0 .026 0
 0 -1 14 809 280 838 ?614 806 839 6 144 +0 0 614 806 149 81 1 838 644 107 809 0
 0 835 840 841 15 839 281 0 426 809 0 17 426 0 839 687 343 261 605 424 0 608 +17
 687 0 839 421 426 321 374 422 0 694 +17 343 0 839 426 421 179 320 423 0 605 +17
 608 0 603 605 604 261 588 507 0 0 -17 588 0 616 368 374 202 608 507 0 0 +17 374
 0 616 588 694 261 687 422 0 426 -17 694 0 616 374 182 321 531 508 0 0 -17 531 0
 703 649 351 174 694 508 0 0 +15 703 331 0 649 696 0 17 649 0 703 506 531 199 64
7 631 0 611 -17 351 0 703 531 506 321 421 419 0 687 -17 506 0 703 351 649 318 61
1 504 0 0 +17 421 0 839 343 687 318 351 419 0 506 +17 611 0 609 208 320 199 506
 504 0 0 -17 208 0 609 652 611 175 201 459 0 644 -17 647 0 645 630 201 174 649 6
31 0 531 +81 1 835 643 107 834 0 0 833 838 842 81 1 840 645 107 143 0 0 838 0 84
3 83 3 841 .792156862745098 .819607843137255 .933333333333333 14 143 272 840 ?80
6 752 844 6 7 +0 0 806 752 149 83 3 843 .792156862745098 .819607843137255 .93333
3333333333 15 844 273 0 273 143 845 17 273 0 844 273 273 237 672 585 0 672 -15 8
45 274 0 260 143 0 17 260 0 845 260 260 238 503 427 0 503 -17 503 0 846 503 503
 238 260 427 0 0 +15 846 279 0 503 806 0 17 672 0 756 672 672 237 273 585 0 0 +1
5 756 266 0 672 752 847 15 847 269 0 236 752 0 17 236 0 847 236 236 234 656 537
 0 656 -17 656 0 848 656 656 234 236 537 0 0 +15 848 341 0 656 610 609 14 610 33
6 849 ?653 607 850 6 851 -0 0 653 607 149 81 1 849 606 107 610 0 0 852 853 854 1
5 850 337 0 404 610 400 50 851 363 0 610 855 856 0 +0 0 0 1 0 0 0 0 -1 52 855 36
2 0 746 857 851 0 +.0001353125 .0155 .0155 -1 0 0 .0013646875 .707106781186548 .
707106781186548 0 1 0 52 856 364 0 399 851 858 0 +.0001353125 .0155 -.0155 -1 0
 0 .0013646875 .707106781186548 .707106781186548 0 1 0 14 399 55 853 ?725 730 85
9 6 856 -0 0 725 730 149 52 858 365 0 784 856 860 0 +.0063548899935925 .0155 -.0
155 -1 0 0 .0006146875 .866025403784439 .5 0 1 0 14 784 82 861 ?741 781 862 6 85
8 -0 0 741 781 149 51 860 366 0 863 858 864 0 +.0023853125 -.0155 -.0155 -1 0 0
 .001229375 0 1 0 14 863 124 865 ?866 867 868 6 860 -0 0 866 867 149 50 864 367
 0 745 860 718 0 +.0045 .0168646875 .0155 -1 0 0 0 -1 0 14 745 36 869 ?870 742 8
71 6 864 -0 0 870 742 149 52 718 368 0 870 864 715 0 +.0046353125 .0155 .0155 -1
 0 0 .0013646875 .707106781186548 .707106781186548 0 1 0 14 870 41 872 ?733 745
 873 6 718 -0 0 733 745 149 81 1 872 611 107 870 0 0 869 874 875 14 733 46 876 ?
730 870 877 6 878 -0 0 730 870 149 15 873 42 0 879 870 880 17 879 0 873 879 879
 226 370 492 0 0 +15 880 45 0 378 870 0 17 378 0 880 378 378 315 520 518 0 520 -
17 520 0 871 520 520 315 378 518 0 0 +15 871 37 0 520 745 881 15 881 40 0 314 74
5 0 17 314 0 881 314 314 312 662 521 0 662 -17 662 0 747 662 662 312 314 521 0 0
 +15 747 32 0 662 742 882 15 882 35 0 252 742 0 17 252 0 882 252 252 196 640 453
 0 640 -17 640 0 883 640 640 196 252 453 0 0 +15 883 25 0 640 746 884 14 746 24
 852 ?742 885 883 6 855 -0 0 742 885 149 15 884 28 0 393 746 0 17 393 0 884 393
 393 253 404 401 0 404 -17 404 0 850 404 404 253 393 401 0 0 +81 1 852 605 107 7
46 0 0 886 849 887 14 885 22 0 ?746 711 888 6 889 -0 0 746 711 149 14 711 17 0 ?
885 709 890 6 891 -0 0 885 709 149 15 888 23 0 195 885 0 50 889 353 0 885 708 87
8 0 +.015 .0025 0 1 0 0 0 1 0 50 708 352 0 759 698 889 0 +.01615 .02 0 0 -1 0 0
 0 -1 51 878 354 0 733 889 892 0 +.0053853125 .0155 .0155 -1 0 0 .001229375 0 1
 0 50 892 355 0 796 878 893 0 +.01615 0 -.02 0 0 1 1 0 0 14 796 237 894 ?792 717
 895 6 892 -0 0 792 717 149 52 893 356 0 821 892 896 0 +.0063548899935925 -.0155
 .0155 -1 0 0 .0006146875 .866025403784439 .5 0 1 0 14 821 113 897 ?867 804 898
 6 893 -0 0 867 804 149 52 896 357 0 800 893 899 0 +.0063548899935925 -.0155 -.0
155 -1 0 0 .0006146875 .866025403784439 .5 0 1 0 14 800 144 900 ?765 834 901 6 8
96 -0 0 765 834 149 51 899 358 0 690 896 902 0 +.0035 0 0 -1 0 0 .026 0 0 -1 14
 690 300 903 ?648 614 688 6 899 +0 0 648 614 149 52 902 359 0 836 899 904 0 +.00
46353125 -.0155 -.0155 -1 0 0 .0013646875 .707106781186548 .707106781186548 0 1
 0 14 836 134 905 ?834 866 906 6 902 -0 0 834 866 149 51 904 360 0 774 902 857 0
 +.0298 0 0 1 0 0 .026 0 0 1 14 774 204 907 ?770 790 908 6 904 +0 0 770 790 149
 52 857 361 0 867 904 855 0 +.0001353125 -.0155 -.0155 -1 0 0 .0013646875 .70710
6781186548 .707106781186548 0 1 0 14 867 117 886 ?863 821 909 6 857 -0 0 863 821
 149 81 1 886 604 107 867 0 0 907 852 910 15 909 118 0 486 867 911 17 486 0 909
 486 486 233 364 485 0 0 +15 911 121 0 912 867 0 17 912 0 911 912 912 354 536 40
8 0 536 -18 354 123 0 912 233 308 913 ?2 17 536 0 914 536 536 354 912 408 0 0 +1
5 914 340 0 536 610 848 29 913 408 0 354 915 341 0 -.014 -.0155 29 915 407 0 362
 916 913 .006709779987185 .0155 -.0155 29 341 409 0 265 913 336 .006709779987185
 -.0155 -.0155 18 265 146 0 917 243 262 341 ?2 17 917 0 901 917 917 265 0 0 0 0
 ?15 901 145 0 917 800 918 15 918 147 0 280 800 0 17 280 0 918 280 280 243 552 4
79 0 552 -17 552 0 837 552 552 243 280 479 0 0 +15 837 140 0 552 834 919 15 919
 143 0 241 834 0 17 241 0 919 241 241 239 673 553 0 673 -17 673 0 906 673 673 23
9 241 553 0 0 +15 906 135 0 673 836 920 15 920 138 0 307 836 0 17 307 0 920 307
 307 242 921 674 0 921 -17 921 0 922 921 921 242 307 674 0 0 +16 674 131 0 ?921
 487 553 923 0 0 2 31 923 492 0 674 924 681 0 +.0045 -.0155 -.0155 1 0 0 0 1 0 .
0015 31 924 491 0 492 925 923 0 +.004770625 .0155 .0155 1 0 0 0 1 0 .001229375 3
0 681 493 0 417 923 657 0 +.029475 -.02115 -.0151220864962478 -1 0 0 16 417 185
 0 ?926 476 414 681 0 0 2 17 926 0 766 416 282 258 927 417 0 0 +15 766 184 0 926
 761 0 17 416 0 766 439 926 254 928 414 0 929 +17 282 0 766 926 439 191 347 440
 0 927 +17 927 0 724 930 385 191 926 417 0 666 -15 724 222 0 931 719 0 17 930 0
 724 931 927 188 666 540 0 0 -17 385 0 724 927 931 258 932 466 0 928 +17 666 0 7
77 347 190 191 930 540 0 0 +15 777 218 0 216 723 0 17 347 0 777 933 666 213 282
 440 0 439 -17 190 0 777 666 934 188 430 428 0 935 -17 934 0 777 190 216 192 670
 436 0 0 -17 430 0 791 581 935 192 190 428 0 934 +17 935 0 791 430 936 188 931 4
31 0 930 +15 791 191 0 935 764 0 17 936 0 791 935 581 164 937 582 0 931 +17 931
 0 724 385 930 164 935 431 0 0 -16 431 192 0 ?935 440 428 925 0 0 2 30 925 490 0
 431 938 924 0 +.029475 -.02115 .0151220864962478 1 0 0 31 938 489 0 582 939 925
 0 +.02465 0 0 1 0 0 0 0 1 .026 16 582 163 0 ?936 432 556 938 0 0 2 30 939 488 0
 512 0 938 0 +.00765 -.02 0 0 0 1 16 512 251 0 ?285 509 544 939 0 0 2 17 285 0 6
97 642 294 283 940 512 0 482 +17 642 0 697 391 285 147 941 544 0 579 +17 294 0 6
97 285 323 286 942 509 0 592 +17 940 0 818 943 482 286 285 512 0 0 -17 482 0 818
 940 637 283 944 480 0 941 +15 818 248 0 637 795 0 17 637 0 818 482 943 209 332
 483 0 944 +17 944 0 831 559 941 209 482 480 0 0 -17 941 0 831 944 579 283 642 5
44 0 0 -15 831 253 0 559 817 0 17 579 0 831 941 559 147 945 444 0 946 +17 559 0
 831 579 944 212 211 484 0 945 +18 147 255 0 642 283 274 9 ?2 17 945 0 947 443 9
46 212 579 444 0 0 -17 946 0 947 945 455 147 391 542 0 0 -15 947 258 0 443 813 0
 17 455 0 947 946 443 274 948 445 0 949 +17 391 0 697 683 642 274 946 542 0 455
 +17 683 0 697 221 391 222 949 545 0 0 +17 221 0 697 249 683 219 372 589 0 523 +
17 949 0 814 948 584 274 683 545 0 0 -15 814 263 0 277 755 0 17 948 0 814 277 94
9 246 455 445 0 0 -17 584 0 814 949 277 222 950 458 0 683 +17 277 0 814 584 948
 275 387 456 0 951 +17 950 0 952 577 372 275 584 458 0 0 -15 952 226 0 577 759 0
 17 577 0 952 523 950 278 951 467 0 953 +17 372 0 952 950 523 222 221 589 0 584
 -17 523 0 952 372 577 219 953 496 0 954 +17 953 0 955 339 954 278 523 496 0 0 -
17 954 0 955 953 633 219 249 475 0 0 -15 955 233 0 339 717 0 17 633 0 955 954 33
9 247 956 497 0 957 +17 249 0 697 323 221 247 954 475 0 633 +17 323 0 697 294 24
9 250 957 511 0 529 +17 957 0 895 956 529 247 323 511 0 0 -17 529 0 895 957 335
 250 958 527 0 942 +15 895 238 0 335 796 0 17 335 0 895 529 956 328 331 338 0 95
8 +17 958 0 797 333 942 328 529 527 0 0 -17 942 0 797 958 592 250 294 509 0 0 -1
5 797 243 0 333 792 0 17 592 0 797 942 333 286 943 590 0 940 +17 333 0 797 592 9
58 299 329 334 0 943 +17 943 0 818 637 940 299 592 590 0 0 -17 956 0 895 335 957
 327 633 497 0 0 -17 339 0 955 633 953 327 326 494 0 956 +17 326 0 330 951 331 2
78 339 494 0 577 -15 330 166 0 332 765 0 17 951 0 330 387 326 275 577 467 0 950
 -17 387 0 330 245 951 246 277 456 0 443 -17 245 0 330 211 387 212 443 441 0 559
 -17 443 0 947 455 945 246 245 441 0 948 +17 211 0 330 332 245 209 559 484 0 637
 -17 332 0 330 329 211 299 637 483 0 333 -14 717 232 874 ?796 759 955 6 715 +0 0
 796 759 149 81 1 874 612 107 717 0 0 872 721 959 14 759 225 700 ?717 722 952 6
 708 -0 0 717 722 149 81 1 700 596 107 759 0 0 695 876 960 81 1 876 597 107 733
 0 0 700 894 961 83 3 960 .196078431372549 .196078431372549 .196078431372549 81
 1 894 598 107 796 0 0 876 897 962 83 3 961 .392156862745098 .392156862745098 .3
92156862745098 81 1 897 599 107 821 0 0 894 900 963 83 3 962 .196078431372549 .1
96078431372549 .196078431372549 81 1 900 600 107 800 0 0 897 903 964 83 3 963 .3
92156862745098 .392156862745098 .392156862745098 81 1 903 601 107 690 0 0 900 90
5 965 83 3 964 .392156862745098 .392156862745098 .392156862745098 81 1 905 602 1
07 836 0 0 903 907 966 83 3 965 .792156862745098 .819607843137255 .9333333333333
33 81 1 907 603 107 774 0 0 905 886 967 83 3 966 .392156862745098 .3921568627450
98 .392156862745098 83 3 967 .792156862745098 .819607843137255 .933333333333333
 81 1 721 613 107 719 0 0 874 727 968 83 3 959 .196078431372549 .196078431372549
 .196078431372549 81 1 727 614 107 725 0 0 721 732 969 83 3 968 .792156862745098
 .819607843137255 .933333333333333 81 1 732 615 107 730 0 0 727 736 970 83 3 969
 .392156862745098 .392156862745098 .392156862745098 81 1 736 616 107 648 0 0 732
 739 971 83 3 970 .392156862745098 .392156862745098 .392156862745098 81 1 739 61
7 107 737 0 0 736 744 972 83 3 971 .792156862745098 .819607843137255 .9333333333
33333 81 1 744 618 107 742 0 0 739 749 973 83 3 972 .392156862745098 .3921568627
45098 .392156862745098 81 1 749 619 107 728 0 0 744 754 974 83 3 973 .3921568627
45098 .392156862745098 .392156862745098 81 1 754 620 107 752 0 0 749 758 975 83
 3 974 .392156862745098 .392156862745098 .392156862745098 81 1 758 621 107 722 0
 0 754 763 976 83 3 975 .792156862745098 .819607843137255 .933333333333333 81 1
 763 622 107 761 0 0 758 768 977 83 3 976 .792156862745098 .819607843137255 .933
333333333333 81 1 768 623 107 740 0 0 763 772 978 83 3 977 .792156862745098 .819
607843137255 .933333333333333 81 1 772 624 107 770 0 0 768 776 979 83 3 978 .392
156862745098 .392156862745098 .392156862745098 81 1 776 625 107 723 0 0 772 705
 980 83 3 979 .792156862745098 .819607843137255 .933333333333333 81 1 705 626 10
7 692 0 0 776 702 981 83 3 980 .792156862745098 .819607843137255 .93333333333333
3 81 1 702 627 107 696 0 0 705 780 982 83 3 981 .792156862745098 .81960784313725
5 .933333333333333 81 1 780 628 107 607 0 0 702 783 983 83 3 982 .79215686274509
8 .819607843137255 .933333333333333 81 1 783 629 107 781 0 0 780 787 984 83 3 98
3 .792156862745098 .819607843137255 .933333333333333 81 1 787 630 107 653 0 0 78
3 789 985 83 3 984 .392156862745098 .392156862745098 .392156862745098 81 1 789 6
31 107 764 0 0 787 794 986 83 3 985 .792156862745098 .819607843137255 .933333333
333333 81 1 794 632 107 792 0 0 789 799 987 83 3 986 .792156862745098 .819607843
137255 .933333333333333 81 1 799 633 107 765 0 0 794 803 988 83 3 987 .196078431
372549 .196078431372549 .196078431372549 81 1 803 634 107 769 0 0 799 808 989 83
 3 988 .792156862745098 .819607843137255 .933333333333333 81 1 808 635 107 806 0
 0 803 812 990 83 3 989 .392156862745098 .392156862745098 .392156862745098 81 1
 812 636 107 755 0 0 808 816 991 83 3 990 .792156862745098 .819607843137255 .933
333333333333 81 1 816 637 107 795 0 0 812 820 992 83 3 991 .196078431372549 .196
078431372549 .196078431372549 81 1 820 638 107 804 0 0 816 824 993 83 3 992 .196
078431372549 .196078431372549 .196078431372549 81 1 824 639 107 773 0 0 820 827
 994 83 3 993 .392156862745098 .392156862745098 .392156862745098 81 1 827 640 10
7 790 0 0 824 830 995 83 3 994 .792156862745098 .819607843137255 .93333333333333
3 81 1 830 641 107 817 0 0 827 833 996 83 3 995 .792156862745098 .81960784313725
5 .933333333333333 81 1 833 642 107 614 0 0 830 835 997 83 3 996 .19607843137254
9 .196078431372549 .196078431372549 83 3 997 .792156862745098 .819607843137255 .
933333333333333 14 813 257 699 ?755 817 947 6 707 +0 0 755 817 149 81 1 699 594
 107 813 0 0 998 695 999 50 707 350 0 813 1000 698 0 +.01615 0 .02 0 0 1 1 0 0 5
0 1000 349 0 866 891 707 0 +.0045 -.0141353125 -.0155 -1 0 0 0 -1 0 14 866 129 9
98 ?836 863 922 6 1000 -0 0 836 863 149 51 891 348 0 711 1001 1000 0 +.013 0 0 -
1 0 0 .005 0 1 0 52 1001 347 0 741 1002 891 0 +.0001353125 -.0155 .0155 -1 0 0 .
0013646875 .707106781186548 .707106781186548 0 1 0 14 741 86 1003 ?737 784 1004
 6 1001 -0 0 737 784 149 52 1002 346 0 750 0 1001 0 +.0046353125 .0155 -.0155 -1
 0 0 .0013646875 .707106781186548 .707106781186548 0 1 0 14 750 72 1005 ?781 728
 1006 6 1002 -0 0 781 728 149 81 1 1005 591 107 750 0 0 0 1003 1007 15 1006 73 0
 643 750 1008 17 643 0 1006 643 643 306 1009 567 0 0 +15 1008 76 0 304 750 0 17
 304 0 1008 304 304 302 1010 601 0 1010 -17 1010 0 751 1010 1010 302 304 601 0 0
 +16 601 69 0 ?1010 598 567 658 0 0 2 15 751 68 0 1010 728 1011 15 1011 71 0 380
 728 0 17 380 0 1011 380 380 305 600 598 0 600 -17 600 0 729 600 600 305 380 598
 0 0 +15 729 63 0 600 725 1012 15 1012 66 0 289 725 0 17 289 0 1012 289 289 287
 668 493 0 668 -17 668 0 859 668 668 287 289 493 0 0 +15 859 56 0 668 399 396 18
 306 75 0 1009 302 381 1013 ?2 17 1009 0 1014 1009 1009 306 643 567 0 643 -15 10
14 81 0 1009 781 0 29 1013 405 0 306 0 916 .004770625 .016729375 -.0155 29 916 4
06 0 357 1013 915 .0343 .02115 -.0151220864962478 18 357 202 0 1015 192 217 916
 ?2 17 1015 0 777 1016 933 357 356 516 0 569 -17 1016 0 777 216 1015 218 465 463
 0 0 -17 933 0 777 1015 347 217 435 433 0 0 -17 356 0 828 597 569 217 1015 516 0
 1017 +17 569 0 828 356 301 357 1018 557 0 465 +15 828 198 0 597 790 0 17 301 0
 828 569 597 266 1019 554 0 478 +17 1018 0 760 1020 465 266 569 557 0 0 -17 465
 0 760 1018 366 357 1016 463 0 0 +15 760 224 0 366 722 0 17 366 0 760 465 1020 2
18 570 549 0 627 -17 1020 0 760 366 1018 262 478 476 0 570 -17 570 0 908 548 627
 262 366 549 0 0 +17 627 0 908 570 515 218 216 517 0 1016 +15 908 205 0 515 774
 0 17 515 0 908 627 548 214 1021 513 0 670 +17 216 0 777 934 1016 214 627 517 0
 515 -17 548 0 908 515 570 295 264 546 0 1021 +17 1021 0 775 317 670 295 515 513
 0 0 -17 670 0 775 1021 389 214 934 436 0 0 +15 775 212 0 1021 770 0 17 389 0 77
5 670 317 192 581 432 0 430 -17 317 0 775 389 1021 298 297 550 0 937 +17 581 0 7
91 936 430 298 389 432 0 0 +17 297 0 801 264 937 295 317 550 0 548 -17 937 0 801
 297 932 298 936 582 0 581 -15 801 149 0 264 765 330 17 932 0 801 937 928 164 38
5 466 0 936 -17 928 0 801 932 256 258 416 414 0 926 -18 164 162 0 932 258 298 16
2 ?2 16 466 161 0 ?385 540 463 619 0 0 2 17 256 0 801 928 1019 254 376 437 0 416
 -17 1019 0 801 256 478 257 301 554 0 597 -17 376 0 825 1017 929 257 256 437 0 1
019 +15 825 215 0 1017 773 0 17 1017 0 825 435 376 217 597 556 0 933 -17 929 0 8
25 376 435 254 439 418 0 0 -17 435 0 825 929 1017 213 933 433 0 0 +17 439 0 766
 282 416 213 929 418 0 435 +17 597 0 828 301 356 257 1017 556 0 0 +17 478 0 801
 1019 264 266 1020 476 0 1018 +17 264 0 801 478 297 262 548 546 0 1020 -81 1 100
3 592 107 741 0 0 1005 998 1022 83 3 1007 .392156862745098 .392156862745098 .392
156862745098 81 1 998 593 107 866 0 0 1003 699 1023 83 3 1022 .392156862745098 .
392156862745098 .392156862745098 83 3 1023 .392156862745098 .392156862745098 .39
2156862745098 15 1004 87 0 562 741 1024 17 562 0 1004 562 562 270 361 560 0 0 +1
5 1024 90 0 269 741 0 17 269 0 1024 269 269 267 407 402 0 407 -17 407 0 1025 407
 407 267 269 402 0 0 +15 1025 339 0 407 610 914 17 361 0 1026 361 361 270 562 56
0 0 562 -15 1026 97 0 361 737 0 15 922 130 0 921 866 1027 15 1027 133 0 353 866
 0 17 353 0 1027 353 353 308 686 487 0 686 -17 686 0 868 686 686 308 353 487 0 0
 +15 868 125 0 686 863 1028 15 1028 128 0 364 863 0 17 364 0 1028 364 364 233 48
6 485 0 486 -83 3 999 .196078431372549 .196078431372549 .196078431372549 16 492
 43 0 ?879 518 489 924 0 0 2 18 362 84 0 1029 381 270 915 ?2 17 1029 0 862 1029
 1029 362 0 0 0 0 ?15 862 83 0 1029 784 1030 15 1030 85 0 383 784 0 17 383 0 103
0 383 383 381 566 563 0 566 -17 566 0 785 566 566 381 383 563 0 0 +15 785 78 0 5
66 781 1014 83 3 910 .392156862745098 .392156862745098 .392156862745098 15 898 1
14 0 232 821 1031 17 232 0 898 232 232 187 0 0 0 0 ?15 1031 116 0 185 821 0 17 1
85 0 1031 185 185 183 1032 145 0 1032 -17 1032 0 822 1032 1032 183 185 145 0 0 +
16 145 110 0 ?1032 498 485 8 0 0 2 15 822 109 0 1032 804 1033 15 1033 112 0 229
 804 0 17 229 0 1033 229 229 186 500 498 0 500 -17 500 0 805 500 500 186 229 498
 0 0 +15 805 104 0 500 769 1034 15 1034 107 0 359 769 0 17 359 0 1034 359 359 23
0 675 501 0 675 -17 195 0 888 195 195 193 452 450 0 452 -17 452 0 890 452 452 19
3 195 450 0 0 +15 890 18 0 452 711 1035 15 1035 21 0 292 711 0 17 292 0 1035 292
 292 160 526 151 0 526 -17 526 0 712 526 526 160 292 151 0 0 +15 712 13 0 526 70
9 1036 15 1036 16 0 159 709 0 17 159 0 1036 159 159 154 150 11 0 150 -17 150 0 7
14 150 150 154 159 11 0 0 +15 714 9 0 150 141 0 83 3 887 .392156862745098 .39215
6862745098 .392156862745098 17 370 0 1037 370 370 226 879 492 0 879 -15 1037 50
 0 370 733 0 15 877 47 0 491 733 1037 17 491 0 877 491 491 223 225 489 0 0 +17 2
25 0 1038 225 225 223 491 489 0 491 -15 1038 54 0 225 730 0 81 1 869 610 107 745
 0 0 865 872 1039 83 3 875 .392156862745098 .392156862745098 .392156862745098 81
 1 865 609 107 863 0 0 861 869 1040 83 3 1039 .392156862745098 .392156862745098
 .392156862745098 81 1 861 608 107 784 0 0 853 865 1041 83 3 1040 .3921568627450
98 .392156862745098 .392156862745098 81 1 853 607 107 399 0 0 849 861 1042 83 3
 1041 .392156862745098 .392156862745098 .392156862745098 83 3 1042 .392156862745
098 .392156862745098 .392156862745098 15 400 338 0 397 610 1025 83 3 854 .792156
862745098 .819607843137255 .933333333333333 83 3 842 .392156862745098 .392156862
745098 .392156862745098 15 810 278 0 157 806 846 17 157 0 810 157 157 12 153 158
 0 0 +15 676 99 0 675 740 1043 15 1043 102 0 311 740 0 17 311 0 1043 311 311 271
 677 564 0 677 -15 679 94 0 677 737 1026 15 734 52 0 394 730 1038 17 394 0 734 3
94 394 227 0 0 0 0 ?83 3 701 .792156862745098 .819607843137255 .933333333333333
 17 650 0 616 182 168 171 624 622 0 0 -17 624 0 651 345 173 166 650 622 0 0 +17
 349 0 691 474 615 180 593 534 0 533 -17 654 0 688 574 448 169 325 412 0 652 +17
 325 0 609 612 652 206 654 412 0 448 -16 412 305 0 ?654 446 572 410 0 0 2 19 142
 1 0 2 0 10 6 S74 20 140 2 0 840 4 0 0 0 0 0 0 0 0 0 0 0 0 0 0 0 0 0 0 84 24 139
 stepper_am17hd4452-02n_11 0 
